<?xml version="1.0" encoding="UTF-8" standalone="no"?>
<!-- Created with Inkscape (http://www.inkscape.org/) -->

<svg
   width="113.65039"
   height="113.65036"
   viewBox="0 0 30.069999 30.069989"
   version="1.1"
   id="svg1"
   inkscape:version="1.3.2 (091e20ef0f, 2023-11-25)"
   sodipodi:docname="load.svg"
   xmlns:inkscape="http://www.inkscape.org/namespaces/inkscape"
   xmlns:sodipodi="http://sodipodi.sourceforge.net/DTD/sodipodi-0.dtd"
   xmlns="http://www.w3.org/2000/svg"
   xmlns:svg="http://www.w3.org/2000/svg">
  <sodipodi:namedview
     id="namedview1"
     pagecolor="#505050"
     bordercolor="#eeeeee"
     borderopacity="1"
     inkscape:showpageshadow="0"
     inkscape:pageopacity="0"
     inkscape:pagecheckerboard="0"
     inkscape:deskcolor="#d1d1d1"
     inkscape:document-units="px"
     inkscape:zoom="1.9401788"
     inkscape:cx="47.676018"
     inkscape:cy="143.28576"
     inkscape:window-width="1920"
     inkscape:window-height="1048"
     inkscape:window-x="0"
     inkscape:window-y="0"
     inkscape:window-maximized="1"
     inkscape:current-layer="layer1"
     showgrid="false" />
  <defs
     id="defs1" />
  <g
     inkscape:label="Calque 1"
     inkscape:groupmode="layer"
     id="layer1"
     transform="translate(-1.8985921,-265.0314)">
    <path
       id="rect1"
       style="color:#000000;fill:#ffffff;stroke-linecap:round;stroke-linejoin:round;-inkscape-stroke:none;paint-order:fill markers stroke"
       d="m 5.5371295,265.0314 c -2.0035061,0 -3.6385374,1.6371 -3.6385374,3.6406 v 22.79086 c 0,2.00349 1.6350313,3.63853 3.6385374,3.63853 H 28.327986 c 2.003506,0 3.640609,-1.63504 3.640604,-3.63853 V 272.1307 a 0.750075,0.750075 0 0 0 -0.28112,-0.58601 l -7.937499,-6.34948 a 0.750075,0.750075 0 0 0 -0.468706,-0.16381 z m 0.6681763,1.49965 H 20.327957 v 6.4394 c 0,0.59021 -0.464489,1.05471 -1.054715,1.05471 H 7.2600217 c -0.5902263,0 -1.0547159,-0.4645 -1.0547159,-1.05471 z m 14.8590412,0 h 1.953369 l 7.451224,5.96139 v 18.97042 c 3e-6,1.19843 -0.942501,2.13888 -2.140954,2.13888 H 26.88673 V 282.158 c 0,-2.16609 -1.759776,-3.92534 -3.925858,-3.92534 H 10.906311 c -2.166084,0 -3.9258588,1.75925 -3.9258588,3.92534 v 11.44374 H 5.5371295 c -1.1984541,0 -2.1388874,-0.94045 -2.1388874,-2.13888 V 268.672 c 0,-1.17593 0.9060508,-2.10335 2.0722248,-2.13785 v 6.4363 c 0,0.98511 0.8044323,1.7911 1.7895548,1.7911 H 19.273242 c 0.985123,0 1.791105,-0.80599 1.791105,-1.7911 z m -5.886463,0.83612 a 0.20092409,0.20092409 0 0 0 -0.201538,0.20102 v 5.42189 a 0.20092409,0.20092409 0 0 0 0.201538,0.20154 h 2.263428 a 0.20092409,0.20092409 0 0 0 0.201021,-0.20154 v -5.42189 a 0.20092409,0.20092409 0 0 0 -0.201021,-0.20102 z m 0.198955,0.40256 h 1.863452 v 5.01933 h -1.863452 z m -4.470528,11.46287 h 12.054561 c 1.629383,0 2.925919,1.29602 2.925919,2.9254 v 11.44374 H 7.9803912 V 282.158 c 0,-1.62938 1.2965362,-2.9254 2.9259198,-2.9254 z m 3.717602,2.22467 v 10.15493 h 5.536096 v -1.65209 H 16.63516 v -8.50284 z" />
  </g>
</svg>
