<?xml version="1.0" encoding="UTF-8" standalone="no"?>
<!-- Created with Inkscape (http://www.inkscape.org/) -->

<svg
   width="64.000229mm"
   height="64.000229mm"
   viewBox="0 0 64.000229 64.000229"
   version="1.1"
   id="svg1"
   inkscape:version="1.3 (0e150ed6c4, 2023-07-21)"
   sodipodi:docname="noteRonde.svg"
   xmlns:inkscape="http://www.inkscape.org/namespaces/inkscape"
   xmlns:sodipodi="http://sodipodi.sourceforge.net/DTD/sodipodi-0.dtd"
   xmlns="http://www.w3.org/2000/svg"
   xmlns:svg="http://www.w3.org/2000/svg">
  <sodipodi:namedview
     id="namedview1"
     pagecolor="#505050"
     bordercolor="#eeeeee"
     borderopacity="1"
     inkscape:showpageshadow="0"
     inkscape:pageopacity="0"
     inkscape:pagecheckerboard="0"
     inkscape:deskcolor="#d1d1d1"
     inkscape:document-units="mm"
     inkscape:zoom="1.3719136"
     inkscape:cx="83.095612"
     inkscape:cy="88.926883"
     inkscape:window-width="1920"
     inkscape:window-height="1048"
     inkscape:window-x="0"
     inkscape:window-y="0"
     inkscape:window-maximized="1"
     inkscape:current-layer="layer1" />
  <defs
     id="defs1" />
  <g
     inkscape:label="Calque 1"
     inkscape:groupmode="layer"
     id="layer1"
     transform="translate(-12.555823,-75.205229)">
    <path
       class="Note"
       d="m 44.582839,100.56009 c -6.791354,0 -9.206402,3.44569 -9.206402,6.64526 0,3.19955 2.415048,6.64525 9.206402,6.64525 6.791372,0 9.152597,-3.4457 9.152597,-6.64525 0,-3.19957 -2.361225,-6.64526 -9.152597,-6.64526 m 0.392263,11.71378 c -1.376742,0 -2.315048,-0.39225 -2.953436,-1.62286 -0.638382,-1.23058 -1.52284,-4.43015 -1.576689,-5.71458 -0.09998,-1.33059 0.392263,-2.11509 1.576689,-2.50734 0.592216,-0.19996 1.376747,-0.29999 2.168954,-0.29999 1.322893,0 2.215076,0.29999 2.899587,1.63057 0.692186,1.27674 1.630542,4.47631 1.630542,5.70689 0,2.41506 -1.776691,2.80731 -3.745647,2.80731"
       id="path68"
       style="stroke-width:0.49224" />
  </g>
</svg>
