<?xml version="1.0" encoding="UTF-8" standalone="no"?>
<!-- Created with Inkscape (http://www.inkscape.org/) -->

<svg
   width="64.000229mm"
   height="64.000229mm"
   viewBox="0 0 64.000229 64.000229"
   version="1.1"
   id="svg1"
   inkscape:version="1.3 (0e150ed6c4, 2023-07-21)"
   sodipodi:docname="noteDouble3.svg"
   xmlns:inkscape="http://www.inkscape.org/namespaces/inkscape"
   xmlns:sodipodi="http://sodipodi.sourceforge.net/DTD/sodipodi-0.dtd"
   xmlns="http://www.w3.org/2000/svg"
   xmlns:svg="http://www.w3.org/2000/svg">
  <sodipodi:namedview
     id="namedview1"
     pagecolor="#505050"
     bordercolor="#eeeeee"
     borderopacity="1"
     inkscape:showpageshadow="0"
     inkscape:pageopacity="0"
     inkscape:pagecheckerboard="0"
     inkscape:deskcolor="#d1d1d1"
     inkscape:document-units="mm"
     inkscape:zoom="1.3719136"
     inkscape:cx="83.095612"
     inkscape:cy="88.926883"
     inkscape:window-width="1920"
     inkscape:window-height="1048"
     inkscape:window-x="0"
     inkscape:window-y="0"
     inkscape:window-maximized="1"
     inkscape:current-layer="layer1" />
  <defs
     id="defs1" />
  <g
     inkscape:label="Calque 1"
     inkscape:groupmode="layer"
     id="layer1"
     transform="translate(-12.555823,-75.205229)">
    <path
       id="polyline67"
       style="color:#000000;fill:#000000;stroke-width:0.563453;stroke-linejoin:bevel;-inkscape-stroke:none"
       d="m 38.692152,75.206098 c -0.672482,0 -0.838589,0.279397 -0.838589,0.672393 v 0.0562 21.243942 28.917727 c -1.146741,-1.11241 -2.894967,-1.70357 -4.858659,-1.70357 -5.423521,0 -11.904081,4.58543 -11.904081,9.72947 0,2.40173 1.729127,5.0832 6.261827,5.0832 5.807853,0 11.904081,-4.75198 11.904081,-9.66895 0,-0.0737 0,-0.14566 -0.0055,-0.21789 V 97.978695 c 1.808461,0.877992 5.611828,3.577895 8.611372,8.030315 1.895176,2.84712 2.340755,4.8641 2.340755,6.75926 0,0.34063 -3.94e-4,0.62007 -0.05296,0.95192 0,1.34499 -0.393009,4.1922 -1.231428,6.428 -0.05241,0.27946 -0.217887,0.62073 -0.217887,0.90019 0,0.21833 0.104584,0.44483 0.38405,0.61079 0.113528,0.0524 0.227127,0.0528 0.279529,0.0528 0.393009,0 0.620193,-0.44621 0.838587,-0.77804 1.01309,-1.56334 2.462911,-4.58465 2.462911,-7.72 0,-1.61567 -0.113592,-2.96097 -0.279529,-4.13125 0.620081,-2.06989 1.065266,-4.13899 1.065266,-6.87258 0,-2.908258 -0.785737,-5.537082 -2.689587,-8.052337 -2.620061,-3.467186 -5.476657,-6.314589 -7.598959,-9.449938 -2.122192,-3.07421 -3.68555,-8.829274 -3.68555,-8.829274 -0.113529,-0.393016 -0.174392,-0.672423 -0.785735,-0.672423 z m 1.170911,13.972993 c 2.855864,0.0611 6.488224,3.860793 8.496934,6.489617 2.183326,2.847092 2.681926,5.143842 2.681926,7.204942 0,0.55895 -0.05241,1.11711 -0.104584,1.67605 -0.454145,-0.89083 -0.952237,-1.615 -1.397591,-2.23509 -1.510957,-1.95633 -3.188302,-3.738481 -5.930572,-6.480834 -2.174705,-2.183338 -3.187514,-4.07808 -3.519387,-5.536586 -0.113528,-0.279467 -0.165596,-0.672673 -0.226735,-1.118099 z" />
    <path
       class="Tuplet"
       d="m 64.567633,106.80117 c 0.982465,-0.31069 1.372676,-0.48407 1.871075,-0.8165 0.982464,-0.64264 1.582115,-1.78416 1.582115,-2.95433 0,-1.97233 -1.582115,-3.301547 -3.90813,-3.301547 -2.268223,0 -4.182756,1.408747 -4.182756,3.120787 0,0.85254 0.520128,1.43046 1.307486,1.43046 0.686108,0 1.191904,-0.49839 1.191904,-1.18496 0,-0.35369 -0.108183,-0.59966 -0.440607,-0.93161 -0.209438,-0.18819 -0.288959,-0.33982 -0.288959,-0.48407 0,-0.4984 1.040256,-1.01853 2.015322,-1.01853 1.394408,0 2.225226,0.77256 2.225226,2.05878 0,1.8563 -1.307488,3.59745 -2.701893,3.59745 -0.06472,0 -0.252899,-0.014 -0.476669,-0.036 -0.607048,-0.0435 -0.607048,-0.0435 -0.729567,-0.0435 -0.462336,0 -0.707838,0.20943 -0.707838,0.58532 0,0.33195 0.231169,0.53446 0.599189,0.53446 0.108654,0 0.252897,-0.014 0.419339,-0.036 0.288961,-0.0652 0.606585,-0.0868 0.787358,-0.0868 0.982465,0 1.646842,0.87428 1.646842,2.16744 0,2.24649 -1.104983,4.40652 -3.619168,4.40652 -1.162777,0 -2.166971,-0.57792 -2.166971,-1.2497 0,-0.22377 0.08646,-0.31069 0.418876,-0.45493 0.599651,-0.26769 0.852549,-0.64311 0.852549,-1.20669 0,-0.72957 -0.585317,-1.28577 -1.329217,-1.28577 -0.896008,0 -1.480863,0.7009 -1.480863,1.78416 0,2.02272 1.538655,3.28722 4.038045,3.28722 3.1425,0 5.533704,-2.10225 5.533704,-4.89061 0,-1.61818 -0.997259,-2.5359 -2.456392,-2.99084"
       id="path129"
       style="stroke-width:0.462335" />
    <path
       id="polyline129"
       class="Tuplet"
       style="fill:none;stroke:#000000;stroke-width:1.1466;stroke-linecap:square;stroke-linejoin:bevel"
       d="m 58.025577,75.779388 h 8.599457 v 20.145383" />
    <path
       id="polyline130"
       class="Tuplet"
       style="fill:none;stroke:#000000;stroke-width:1.1466;stroke-linecap:square;stroke-linejoin:bevel"
       d="m 66.625034,118.48678 v 20.14539 h -8.599457" />
  </g>
</svg>
