<?xml version="1.0" encoding="UTF-8" standalone="no"?>
<!-- Created with Inkscape (http://www.inkscape.org/) -->

<svg
   width="64.000229mm"
   height="64.000229mm"
   viewBox="0 0 64.000229 64.000229"
   version="1.1"
   id="svg1"
   inkscape:version="1.3 (0e150ed6c4, 2023-07-21)"
   sodipodi:docname="noteDouble2.svg"
   xmlns:inkscape="http://www.inkscape.org/namespaces/inkscape"
   xmlns:sodipodi="http://sodipodi.sourceforge.net/DTD/sodipodi-0.dtd"
   xmlns="http://www.w3.org/2000/svg"
   xmlns:svg="http://www.w3.org/2000/svg">
  <sodipodi:namedview
     id="namedview1"
     pagecolor="#505050"
     bordercolor="#eeeeee"
     borderopacity="1"
     inkscape:showpageshadow="0"
     inkscape:pageopacity="0"
     inkscape:pagecheckerboard="0"
     inkscape:deskcolor="#d1d1d1"
     inkscape:document-units="mm"
     inkscape:zoom="1.3719136"
     inkscape:cx="83.095612"
     inkscape:cy="88.926883"
     inkscape:window-width="1920"
     inkscape:window-height="1048"
     inkscape:window-x="0"
     inkscape:window-y="0"
     inkscape:window-maximized="1"
     inkscape:current-layer="layer1" />
  <defs
     id="defs1" />
  <g
     inkscape:label="Calque 1"
     inkscape:groupmode="layer"
     id="layer1"
     transform="translate(-12.555823,-75.205229)">
    <path
       id="polyline67"
       style="color:#000000;fill:#000000;stroke-width:0.563453;stroke-linejoin:bevel;-inkscape-stroke:none"
       d="m 38.692152,75.206098 c -0.672482,0 -0.838589,0.279397 -0.838589,0.672393 v 0.0562 21.243942 28.917727 c -1.146741,-1.11241 -2.894967,-1.70357 -4.858659,-1.70357 -5.423521,0 -11.904081,4.58543 -11.904081,9.72947 0,2.40173 1.729127,5.0832 6.261827,5.0832 5.807853,0 11.904081,-4.75198 11.904081,-9.66895 0,-0.0737 0,-0.14566 -0.0055,-0.21789 V 97.978695 c 1.808461,0.877992 5.611828,3.577895 8.611372,8.030315 1.895176,2.84712 2.340755,4.8641 2.340755,6.75926 0,0.34063 -3.94e-4,0.62007 -0.05296,0.95192 0,1.34499 -0.393009,4.1922 -1.231428,6.428 -0.05241,0.27946 -0.217887,0.62073 -0.217887,0.90019 0,0.21833 0.104584,0.44483 0.38405,0.61079 0.113528,0.0524 0.227127,0.0528 0.279529,0.0528 0.393009,0 0.620193,-0.44621 0.838587,-0.77804 1.01309,-1.56334 2.462911,-4.58465 2.462911,-7.72 0,-1.61567 -0.113592,-2.96097 -0.279529,-4.13125 0.620081,-2.06989 1.065266,-4.13899 1.065266,-6.87258 0,-2.908258 -0.785737,-5.537082 -2.689587,-8.052337 -2.620061,-3.467186 -5.476657,-6.314589 -7.598959,-9.449938 -2.122192,-3.07421 -3.68555,-8.829274 -3.68555,-8.829274 -0.113529,-0.393016 -0.174392,-0.672423 -0.785735,-0.672423 z m 1.170911,13.972993 c 2.855864,0.0611 6.488224,3.860793 8.496934,6.489617 2.183326,2.847092 2.681926,5.143842 2.681926,7.204942 0,0.55895 -0.05241,1.11711 -0.104584,1.67605 -0.454145,-0.89083 -0.952237,-1.615 -1.397591,-2.23509 -1.510957,-1.95633 -3.188302,-3.738481 -5.930572,-6.480834 -2.174705,-2.183338 -3.187514,-4.07808 -3.519387,-5.536586 -0.113528,-0.279467 -0.165596,-0.672673 -0.226735,-1.118099 z" />
    <path
       id="polyline129"
       class="Tuplet"
       style="fill:none;stroke:#000000;stroke-width:1.1466;stroke-linecap:square;stroke-linejoin:bevel"
       d="m 58.025577,75.779388 h 8.599457 v 20.145383" />
    <path
       id="polyline130"
       class="Tuplet"
       style="fill:none;stroke:#000000;stroke-width:1.1466;stroke-linecap:square;stroke-linejoin:bevel"
       d="m 66.625034,118.48678 v 20.14539 h -8.599457" />
    <path
       class="Tuplet"
       d="m 65.649635,110.28564 -0.5524,0.97402 c -0.849899,1.46793 -1.0198,1.59353 -2.105798,1.61571 h -4.9245 c 0.505202,-0.67895 1.435302,-1.46838 3.1398,-2.65583 2.804598,-1.933 2.998201,-2.0586 3.593098,-2.52318 1.695001,-1.32064 2.398499,-2.57465 2.398499,-4.24939 0,-2.23514 -1.661998,-3.718191 -4.102997,-3.718191 -2.714899,0 -5.075599,1.992001 -5.075599,4.308401 0,1.1879 0.637399,1.95518 1.6619,1.95518 0.760199,0 1.3551,-0.57554 1.3551,-1.35745 0,-0.55336 -0.278589,-0.91503 -0.982099,-1.29842 -0.505202,-0.25134 -0.590203,-0.3617 -0.590203,-0.6124 0,-0.91502 1.572302,-1.93296 3.017102,-1.93296 1.4873,0 2.488198,0.99575 2.488198,2.48632 0,1.58597 -0.698698,2.75879 -2.620399,4.41891 -5.6517,4.90613 -6.496798,5.79848 -6.690397,6.98642 h 9.117296 l 1.633602,-4.10207 -0.760203,-0.29518"
       id="path138"
       style="stroke-width:0.472154" />
  </g>
</svg>
