<?xml version="1.0" encoding="UTF-8" standalone="no"?>
<!-- Created with Inkscape (http://www.inkscape.org/) -->

<svg
   width="64.000229mm"
   height="64.000229mm"
   viewBox="0 0 64.000229 64.000229"
   version="1.1"
   id="svg1"
   inkscape:version="1.3 (0e150ed6c4, 2023-07-21)"
   sodipodi:docname="noteDouble.svg"
   xmlns:inkscape="http://www.inkscape.org/namespaces/inkscape"
   xmlns:sodipodi="http://sodipodi.sourceforge.net/DTD/sodipodi-0.dtd"
   xmlns="http://www.w3.org/2000/svg"
   xmlns:svg="http://www.w3.org/2000/svg">
  <sodipodi:namedview
     id="namedview1"
     pagecolor="#505050"
     bordercolor="#eeeeee"
     borderopacity="1"
     inkscape:showpageshadow="0"
     inkscape:pageopacity="0"
     inkscape:pagecheckerboard="0"
     inkscape:deskcolor="#d1d1d1"
     inkscape:document-units="mm"
     inkscape:zoom="1.3719136"
     inkscape:cx="83.095612"
     inkscape:cy="88.926883"
     inkscape:window-width="1920"
     inkscape:window-height="1048"
     inkscape:window-x="0"
     inkscape:window-y="0"
     inkscape:window-maximized="1"
     inkscape:current-layer="layer1" />
  <defs
     id="defs1" />
  <g
     inkscape:label="Calque 1"
     inkscape:groupmode="layer"
     id="layer1"
     transform="translate(-12.555823,-75.205229)">
    <path
       id="polyline67"
       style="color:#000000;fill:#000000;stroke-width:0.563458;stroke-linejoin:bevel;-inkscape-stroke:none"
       d="m 45.976741,75.205355 c -0.672488,0 -0.838597,0.2794 -0.838597,0.6724 v 0.0562 21.24415 28.918005 c -1.146752,-1.11242 -2.894995,-1.70358 -4.858707,-1.70358 -5.423574,0 -11.904197,4.58547 -11.904197,9.72956 0,2.40175 1.729144,5.08325 6.261888,5.08325 5.80791,0 11.904198,-4.75203 11.904198,-9.66904 0,-0.0737 0,-0.14567 -0.0055,-0.2179 V 97.978175 c 1.808478,0.878 5.611883,3.577925 8.611456,8.030395 1.895194,2.84714 2.340778,4.86414 2.340778,6.75932 0,0.34063 -3.94e-4,0.62008 -0.05296,0.95193 0,1.345 -0.393013,4.19224 -1.23144,6.42806 -0.05241,0.27947 -0.217889,0.62074 -0.217889,0.9002 0,0.21833 0.104585,0.44484 0.384054,0.6108 0.113529,0.0524 0.227129,0.0528 0.279532,0.0528 0.393012,0 0.620199,-0.44622 0.838595,-0.77805 1.0131,-1.56335 2.462935,-4.58469 2.462935,-7.72007 0,-1.61569 -0.113593,-2.961 -0.279532,-4.13129 0.620087,-2.06991 1.065277,-4.13904 1.065277,-6.87265 0,-2.908285 -0.785745,-5.537135 -2.689614,-8.052415 -2.620086,-3.46722 -5.47671,-6.31465 -7.599033,-9.45003 -2.122213,-3.07424 -3.685586,-8.82936 -3.685586,-8.82936 -0.11353,-0.39302 -0.174394,-0.67243 -0.785743,-0.67243 z m 1.170923,13.97313 c 2.855892,0.0611 6.488287,3.86083 8.497017,6.48968 2.183347,2.84712 2.681952,5.143885 2.681952,7.205005 0,0.55896 -0.05241,1.11713 -0.104585,1.67607 -0.45415,-0.89084 -0.952246,-1.61501 -1.397605,-2.23511 -1.510972,-1.95635 -3.188333,-3.738515 -5.93063,-6.480895 -2.174726,-2.18336 -3.187545,-4.07812 -3.519421,-5.53664 -0.113529,-0.27947 -0.165598,-0.67268 -0.226737,-1.11811 z" />
  </g>
</svg>
