<?xml version="1.0" encoding="UTF-8" standalone="no"?>
<!-- Created with Inkscape (http://www.inkscape.org/) -->

<svg
   width="113.65039"
   height="113.65036"
   viewBox="0 0 30.069999 30.069989"
   version="1.1"
   id="svg1"
   inkscape:version="1.3.2 (091e20ef0f, 2023-11-25)"
   sodipodi:docname="saveAs.svg"
   xmlns:inkscape="http://www.inkscape.org/namespaces/inkscape"
   xmlns:sodipodi="http://sodipodi.sourceforge.net/DTD/sodipodi-0.dtd"
   xmlns="http://www.w3.org/2000/svg"
   xmlns:svg="http://www.w3.org/2000/svg">
  <sodipodi:namedview
     id="namedview1"
     pagecolor="#505050"
     bordercolor="#eeeeee"
     borderopacity="1"
     inkscape:showpageshadow="0"
     inkscape:pageopacity="0"
     inkscape:pagecheckerboard="0"
     inkscape:deskcolor="#d1d1d1"
     inkscape:document-units="px"
     inkscape:zoom="3.8803577"
     inkscape:cx="52.18591"
     inkscape:cy="37.109981"
     inkscape:window-width="1920"
     inkscape:window-height="1048"
     inkscape:window-x="0"
     inkscape:window-y="0"
     inkscape:window-maximized="1"
     inkscape:current-layer="layer1"
     showgrid="false" />
  <defs
     id="defs1" />
  <g
     inkscape:label="Calque 1"
     inkscape:groupmode="layer"
     id="layer1"
     transform="translate(-1.8985921,-265.0314)">
    <path
       id="rect1"
       style="color:#000000;fill:#ffffff;stroke-linecap:round;stroke-linejoin:round;-inkscape-stroke:none;paint-order:fill markers stroke"
       d="m 5.5371295,265.0314 c -2.0035041,0 -3.6385374,1.6371 -3.6385374,3.6406 v 22.79086 c 0,2.00348 1.6350333,3.63853 3.6385374,3.63853 H 28.327986 c 2.003504,0 3.640609,-1.63505 3.640604,-3.63853 V 272.1307 a 0.750075,0.750075 0 0 0 -0.28112,-0.58601 l -0.511596,-0.40927 v 1.42885 c 0,0.57317 -0.279665,1.08791 -0.706934,1.418 v 17.48059 c 3e-6,1.19842 -0.942503,2.13888 -2.140954,2.13888 H 26.88673 V 282.158 c 0,-2.16609 -1.759779,-3.92534 -3.925858,-3.92534 H 10.906311 c -2.1660822,0 -3.9258588,1.75925 -3.9258588,3.92534 v 11.44374 H 5.5371295 c -1.1984529,0 -2.1388874,-0.94046 -2.1388874,-2.13888 V 268.672 c 0,-1.17593 0.906052,-2.10335 2.0722248,-2.13785 v 6.4363 c 0,0.9851 0.8044333,1.7911 1.7895548,1.7911 H 19.273242 c 0.462627,0 0.881751,-0.18226 1.200443,-0.47284 -0.26349,-0.0759 -0.502562,-0.21096 -0.702799,-0.39016 -0.148142,0.0784 -0.315672,0.12661 -0.497644,0.12661 H 7.2600217 c -0.5902257,0 -1.0547159,-0.46451 -1.0547159,-1.05471 v -6.4394 H 20.327957 v 2.88767 c 0.197622,-0.0761 0.410737,-0.11989 0.633037,-0.11989 h 0.103353 v -2.76778 h 1.953369 c 0.330035,-0.42718 0.844727,-0.70694 1.418001,-0.70694 h 0.100252 l -0.785998,-0.6289 a 0.750075,0.750075 0 0 0 -0.468706,-0.16381 z m 18.8985875,1.5875 c -0.555018,0 -1.002006,0.44698 -1.002006,1.002 v 2.47168 h -2.4722 c -0.555018,0 -1.00149,0.447 -1.00149,1.00201 v 1.46968 c 0,0.55502 0.446472,1.002 1.00149,1.002 h 2.4722 v 2.4722 c 0,0.55502 0.446988,1.00149 1.002006,1.00149 h 1.469678 c 0.555016,0 1.002006,-0.44647 1.002006,-1.00149 v -2.4722 h 2.4722 c 0.555016,0 1.001489,-0.44698 1.001489,-1.002 v -1.46968 c 0,-0.55501 -0.446473,-1.00201 -1.001489,-1.00201 h -2.4722 v -2.47168 c 0,-0.55502 -0.44699,-1.002 -1.002006,-1.002 z m -9.257833,0.74827 a 0.20092409,0.20092409 0 0 0 -0.201538,0.20102 v 5.42189 a 0.20092409,0.20092409 0 0 0 0.201538,0.20154 h 2.263428 a 0.20092409,0.20092409 0 0 0 0.201021,-0.20154 v -5.42189 a 0.20092409,0.20092409 0 0 0 -0.201021,-0.20102 z m 0.198955,0.40256 h 1.863452 v 5.01933 h -1.863452 z m 12.324312,0.58601 v 0.94309 h 1.178739 z m -16.79484,10.87686 h 12.054561 c 1.629381,0 2.925919,1.29602 2.925919,2.9254 v 11.44374 H 7.9803912 V 282.158 c 0,-1.62938 1.2965375,-2.9254 2.9259198,-2.9254 z m 6.311242,2.22001 c -0.503869,0 -0.952571,0.0824 -1.346688,0.24702 -0.389127,0.15964 -0.718657,0.37398 -0.988053,0.64337 -0.269396,0.26939 -0.473713,0.57888 -0.613399,0.92811 -0.139687,0.34422 -0.209807,0.69828 -0.209807,1.06247 0,0.45897 0.0601,0.84307 0.179834,1.15238 0.12472,0.30931 0.286723,0.56872 0.486276,0.77825 0.199551,0.20952 0.426665,0.3793 0.681095,0.50901 0.259418,0.12472 0.521075,0.23214 0.785482,0.32194 0.269395,0.0898 0.531569,0.17443 0.785998,0.25425 0.259419,0.0748 0.488778,0.16723 0.68833,0.27699 0.199553,0.10476 0.359309,0.23672 0.479041,0.39636 0.12472,0.15964 0.187068,0.36671 0.187068,0.62115 0,0.44899 -0.124696,0.78854 -0.374137,1.01802 -0.24944,0.22948 -0.598488,0.34417 -1.047481,0.34417 -0.309306,0 -0.576488,-0.0451 -0.800985,-0.13488 -0.224496,-0.0948 -0.421559,-0.1972 -0.591178,-0.30696 -0.169619,-0.11474 -0.319359,-0.21664 -0.449068,-0.30644 -0.124721,-0.0948 -0.246655,-0.14211 -0.366386,-0.14211 -0.0898,0 -0.174944,0.0223 -0.254765,0.0672 -0.07483,0.0449 -0.134417,0.10449 -0.179317,0.17932 l -0.583944,0.93534 c 0.184586,0.19956 0.399437,0.37935 0.643888,0.53899 0.244452,0.15964 0.503862,0.2966 0.778247,0.41134 0.274385,0.11474 0.558322,0.20213 0.852662,0.262 0.299328,0.0649 0.598807,0.0977 0.898136,0.0977 0.528813,0 0.998067,-0.0851 1.407149,-0.25476 0.414072,-0.16962 0.76312,-0.39898 1.047481,-0.68833 0.284363,-0.29434 0.498697,-0.63839 0.643372,-1.0325 0.149664,-0.39412 0.224792,-0.81605 0.224792,-1.26504 0,-0.41407 -0.06235,-0.76537 -0.187068,-1.05471 -0.119731,-0.28936 -0.282251,-0.53426 -0.486792,-0.73381 -0.199553,-0.19955 -0.428913,-0.3638 -0.68833,-0.49351 -0.254429,-0.1347 -0.516086,-0.24938 -0.785482,-0.34417 -0.269396,-0.0998 -0.533816,-0.19217 -0.793233,-0.27698 -0.254429,-0.0848 -0.484305,-0.17997 -0.688847,-0.28474 -0.199552,-0.10975 -0.361555,-0.2367 -0.486275,-0.38137 -0.119731,-0.14967 -0.179317,-0.33671 -0.179317,-0.56121 0,-0.3542 0.111917,-0.6409 0.336413,-0.86041 0.229485,-0.21951 0.569033,-0.32969 1.018026,-0.32969 0.254429,0 0.47878,0.0351 0.673344,0.1049 0.194563,0.0698 0.364337,0.14721 0.509012,0.23203 0.149664,0.0798 0.27937,0.15494 0.389124,0.22479 0.109754,0.0698 0.211654,0.10438 0.306441,0.10438 0.09978,0 0.18216,-0.02 0.247014,-0.0599 0.06984,-0.0449 0.129947,-0.11726 0.179834,-0.21704 l 0.501261,-0.92759 c -0.344228,-0.33426 -0.760633,-0.59367 -1.249536,-0.77825 -0.483915,-0.18459 -1.010508,-0.27699 -1.579232,-0.27699 z" />
  </g>
</svg>
