<?xml version="1.0" encoding="UTF-8" standalone="no"?>
<!-- Created with Inkscape (http://www.inkscape.org/) -->

<svg
   width="143.02969mm"
   height="37.09951mm"
   viewBox="0 0 143.02969 37.09951"
   version="1.1"
   id="svg1"
   inkscape:version="1.3.2 (091e20ef0f, 2023-11-25)"
   sodipodi:docname="voxa.svg"
   xmlns:inkscape="http://www.inkscape.org/namespaces/inkscape"
   xmlns:sodipodi="http://sodipodi.sourceforge.net/DTD/sodipodi-0.dtd"
   xmlns="http://www.w3.org/2000/svg"
   xmlns:svg="http://www.w3.org/2000/svg">
  <sodipodi:namedview
     id="namedview1"
     pagecolor="#505050"
     bordercolor="#eeeeee"
     borderopacity="1"
     inkscape:showpageshadow="0"
     inkscape:pageopacity="0"
     inkscape:pagecheckerboard="0"
     inkscape:deskcolor="#d1d1d1"
     inkscape:document-units="mm"
     inkscape:zoom="7.7607152"
     inkscape:cx="287.40908"
     inkscape:cy="118.67463"
     inkscape:window-width="1920"
     inkscape:window-height="1048"
     inkscape:window-x="0"
     inkscape:window-y="0"
     inkscape:window-maximized="1"
     inkscape:current-layer="layer1" />
  <defs
     id="defs1" />
  <g
     inkscape:label="Calque 1"
     inkscape:groupmode="layer"
     id="layer1"
     transform="translate(-42.154589,-105.55156)">
    <path
       style="color:#000000;-inkscape-font-specification:'Kinnari, Italic';fill:#999999;stroke-linecap:round;stroke-linejoin:round;-inkscape-stroke:none;paint-order:fill markers stroke"
       d="m 52.884766,105.55078 c -0.221461,0 -0.295111,0.0301 -0.509766,0.0703 -0.214655,0.0403 -0.500121,0.0984 -0.861328,0.17579 a 0.68137813,0.68137813 0 0 0 -0.0098,0.002 c -0.655555,0.15128 -1.804263,0.40654 -3.427734,0.76172 -1.574507,0.30474 -3.356334,0.61026 -5.34375,0.91601 a 0.68137813,0.68137813 0 0 0 -0.578125,0.67383 v 0.99805 a 0.68137813,0.68137813 0 0 0 0.74414,0.67773 c 0.527284,-0.0479 1.278634,-0.0742 2.238282,-0.0742 1.318514,0 2.058343,0.39898 2.554687,1.26758 a 0.68137813,0.68137813 0 0 0 0.0059,0.0137 c 0.478755,0.79792 1.090496,3.07286 1.597656,6.57227 a 0.68137813,0.68137813 0 0 0 0.002,0.0137 c 0.403379,2.4707 0.787379,6.0367 1.144531,10.67969 0.357299,4.64488 0.535156,8.11503 0.535156,10.38086 0,0.94885 0.05043,1.67241 0.191407,2.23633 0.07049,0.28195 0.15853,0.53038 0.332031,0.76171 0.173501,0.23134 0.505495,0.44336 0.847656,0.44336 0.904148,0 1.651162,-0.57845 2.726563,-1.50781 1.0754,-0.92936 2.399401,-2.28712 3.996093,-4.08984 3.244121,-3.65608 6.810365,-8.22485 10.707032,-13.71094 a 0.68137813,0.68137813 0 0 0 0.002,-0.004 c 1.362439,-1.93885 2.488683,-4.06032 3.376953,-6.35937 0.935033,-2.28852 1.425781,-4.1626 1.425781,-5.69141 0,-1.38083 -0.517579,-2.62901 -1.490234,-3.60937 -0.919304,-1.02664 -2.103883,-1.59766 -3.408203,-1.59766 -0.989558,0 -1.884442,0.27655 -2.580078,0.8457 a 0.68137813,0.68137813 0 0 0 -0.02344,0.0195 c -0.66059,0.59452 -0.99414,1.46565 -0.994141,2.42578 0,1.3835 0.66687,2.64833 1.84961,3.66211 1.002872,0.8596 1.373047,1.56456 1.373047,2.01367 0,1.51727 -1.004184,4.19472 -3.126953,7.7832 -2.12069,3.53383 -4.540985,6.65817 -7.259766,9.37695 a 0.68137813,0.68137813 0 0 0 -0.02148,0.0234 l -1.226563,1.34766 c -0.331305,-6.62608 -0.913351,-12.96373 -1.814453,-18.93945 a 0.68137813,0.68137813 0 0 0 -0.0059,-0.0352 c -0.814152,-3.96899 -1.297463,-6.20453 -1.541016,-7.00391 -0.08959,-0.38615 -0.207451,-0.71754 -0.427734,-1.0039 -0.221526,-0.28799 -0.61014,-0.51563 -1,-0.51563 z m 47.250004,0 c -5.973413,0 -11.441848,2.59062 -16.292973,7.65039 -4.851238,5.0599 -7.322266,10.74976 -7.322266,16.96289 0,3.46365 1.093191,6.31773 3.279297,8.39453 2.185241,2.07598 5.149692,3.10352 8.753906,3.10352 3.93621,0 7.744211,-1.33994 11.365235,-3.96289 l 0.0039,-0.002 c 3.652595,-2.60972 6.560215,-5.80568 8.705075,-9.57227 a 0.68137813,0.68137813 0 0 0 0.002,-0.004 c 2.14019,-3.81058 3.23242,-7.50712 3.23242,-11.07226 0,-3.36582 -1.09667,-6.19016 -3.27344,-8.3125 -2.17551,-2.12113 -5.04198,-3.18555 -8.45312,-3.18555 z m 28.07421,0 c -1.71007,0 -4.66633,0.76984 -9.1875,2.25977 l -0.81054,0.21875 a 0.68137813,0.68137813 0 0 0 -0.49024,0.7832 l 0.23047,1.22852 a 0.68137813,0.68137813 0 0 0 0.81055,0.54101 c 1.32696,-0.2807 2.35876,-0.49184 3.0918,-0.63086 0.73303,-0.13902 1.27156,-0.19922 1.21679,-0.19922 0.76907,0 1.09824,0.18794 1.32813,0.58203 a 0.68137813,0.68137813 0 0 0 0.0215,0.0352 c 0.26374,0.39561 0.7774,1.86646 1.28321,4.14258 a 0.68137813,0.68137813 0 0 0 0.004,0.0137 l 2.22656,9.13477 -6.11132,8.72265 a 0.68137813,0.68137813 0 0 0 -0.0254,0.0371 c -0.72088,1.19317 -1.39708,2.06756 -1.98829,2.61328 -0.5912,0.54573 -1.06687,0.74024 -1.41796,0.74024 0.0169,0 -0.1916,-0.0295 -0.47852,-0.13282 -0.28692,-0.10329 -0.67322,-0.268 -1.14648,-0.49218 l 0.0254,0.0137 c -1.02828,-0.54119 -1.93397,-0.8457 -2.77344,-0.8457 -0.87134,0 -1.67701,0.34798 -2.25391,0.98046 -0.62397,0.63052 -0.95703,1.47221 -0.95703,2.38477 0,1.16571 0.4167,2.19472 1.23047,2.88867 0.81078,0.74091 1.92155,1.0918 3.20898,1.0918 1.66705,0 3.29303,-0.86334 4.85352,-2.42383 1.47429,-1.47429 4.68879,-5.57484 8.92383,-11.16797 l 1.89843,7.85352 a 0.68137813,0.68137813 0 0 0 0.002,0.01 c 0.52243,2.0375 1.08049,3.47856 1.8164,4.39844 a 0.68137813,0.68137813 0 0 0 0.0137,0.0176 c 0.75969,0.88631 1.91953,1.3125 3.27929,1.3125 1.66308,0 3.21085,-0.68213 4.53711,-1.95313 1.31944,-1.26445 3.07812,-3.63188 5.39063,-7.17773 a 0.68137813,0.68137813 0 0 0 -0.25,-0.97266 l -1.15039,-0.61328 a 0.68137813,0.68137813 0 0 0 -0.84375,0.16406 c -0.27714,0.33257 -0.80894,1.01755 -1.62891,2.09375 a 0.68137813,0.68137813 0 0 0 -0.004,0.004 c -0.75179,1.00239 -1.39697,1.74405 -1.90625,2.20703 -0.49407,0.44916 -0.86827,0.58985 -1.07617,0.58985 -0.24077,0 -0.46376,-0.0983 -0.77929,-0.51563 -0.31496,-0.41655 -0.65055,-1.13785 -0.94336,-2.13672 -5.5e-4,-0.002 -0.001,-0.002 -0.002,-0.004 l -0.67968,-2.95313 a 0.68137813,0.68137813 0 0 0 -0.004,-0.0117 c -0.50975,-2.03899 -1.01908,-4.20601 -1.5293,-6.50195 -0.49001,-2.20506 -0.70521,-3.55766 -0.72265,-3.91797 1.69404,-2.95488 3.15358,-5.23315 4.31054,-6.69141 0.59432,-0.74908 1.11794,-1.29626 1.53516,-1.63281 0.41721,-0.33655 0.71786,-0.42969 0.80859,-0.42969 0.15361,0 0.76934,0.17178 1.59961,0.61133 a 0.68137813,0.68137813 0 0 0 0.0273,0.0156 c 0.91589,0.43101 1.66827,0.67773 2.36132,0.67773 1.0117,0 1.89626,-0.27348 2.50196,-0.89648 0.60569,-0.623 0.86328,-1.51602 0.86328,-2.54688 0,-0.97638 -0.40904,-1.86544 -1.14258,-2.49023 -0.69212,-0.6805 -1.63465,-1.0293 -2.68359,-1.0293 -1.90696,0 -3.76485,0.93243 -5.53321,2.64649 -7.2e-4,6.9e-4 -0.001,0.001 -0.002,0.002 -1.54042,1.44883 -3.45547,4.00085 -5.66602,7.32812 l -0.47656,-2.66406 a 0.68137813,0.68137813 0 0 0 -0.008,-0.0332 c -0.61807,-2.6783 -1.18523,-4.47798 -1.83984,-5.55469 -0.60599,-1.0828 -1.6654,-1.72461 -2.88868,-1.72461 z m 42.49414,0 c -3.45727,0 -6.95567,1.40928 -10.46484,4.13281 -3.50279,2.71859 -6.40301,6.16971 -8.69336,10.33399 a 0.68137813,0.68137813 0 0 0 -0.004,0.006 c -2.24205,4.17124 -3.37891,8.30087 -3.37891,12.36523 0,2.82595 0.73194,5.13988 2.24609,6.82227 a 0.68137813,0.68137813 0 0 0 0.008,0.01 c 1.51504,1.62727 3.63027,2.44141 6.17382,2.44141 2.79887,0 5.346,-0.87728 7.55274,-2.59961 a 0.68137813,0.68137813 0 0 0 0.008,-0.006 c 1.78128,-1.43371 4.02841,-4.10465 6.57617,-7.50195 -0.52935,2.43243 -1.16406,5.14762 -1.16406,6.12695 0,1.21792 0.23412,2.20287 0.89062,2.85938 0.67999,0.67998 1.67736,0.96679 2.85938,0.96679 1.64743,0 3.23889,-0.60746 4.71289,-1.7539 1.48182,-1.15253 3.59867,-3.43943 6.47461,-6.93164 a 0.68137813,0.68137813 0 0 0 -0.0898,-0.95704 l -0.91993,-0.76562 a 0.68137813,0.68137813 0 0 0 -0.93359,0.0547 c -1.65298,1.7547 -2.98377,3.06727 -3.97461,3.92187 -0.49542,0.4273 -0.90856,0.74075 -1.21289,0.93164 -0.30433,0.1909 -0.52253,0.22656 -0.45312,0.22656 -0.21884,0 -0.26002,-0.0452 -0.26563,-0.0508 -0.006,-0.006 -0.0488,-0.0468 -0.0488,-0.26562 0,-0.34685 0.1373,-1.34293 0.43164,-2.79883 0.29435,-1.4559 0.73878,-3.41176 1.33203,-5.86133 1.18652,-4.89914 2.96865,-11.77353 5.34571,-20.61718 a 0.68137813,0.68137813 0 0 0 -0.35352,-0.78711 l -0.45898,-0.23047 a 0.68137813,0.68137813 0 0 0 -0.38282,-0.0664 l -4.67968,0.53711 a 0.68137813,0.68137813 0 0 0 -0.4043,0.19336 l -0.22852,0.23047 a 0.68137813,0.68137813 0 0 0 -0.18164,0.32031 l -0.38671,1.58008 c -0.36456,-0.6302 -0.82814,-1.17223 -1.4004,-1.59961 -1.16013,-0.86643 -2.69407,-1.26758 -4.53125,-1.26758 z m -101.019526,1.36328 c 0.939198,0 1.689122,0.34778 2.404297,1.15235 a 0.68137813,0.68137813 0 0 0 0.02734,0.0293 c 0.755971,0.75597 1.105469,1.59569 1.105469,2.66211 0,1.22929 -0.428107,2.98463 -1.330078,5.18946 a 0.68137813,0.68137813 0 0 0 -0.0059,0.0117 c -0.850382,2.20099 -1.922075,4.22114 -3.21875,6.06641 -3.875407,5.45602 -7.416624,9.98897 -10.615235,13.59375 -1.573789,1.77686 -2.871547,3.10246 -3.867187,3.96289 -0.905381,0.78243 -1.495808,1.01649 -1.669922,1.07031 -0.01117,-0.0334 -0.01265,-0.0233 -0.02344,-0.0664 -0.08914,-0.35655 -0.152343,-1.01418 -0.152343,-1.90625 0,-2.33649 -0.180447,-5.82237 -0.539063,-10.48438 -0.358371,-4.65882 -0.740008,-8.24492 -1.154297,-10.78515 l -0.002,-0.01 c -0.514439,-3.54682 -1.029014,-5.81547 -1.775391,-7.0625 -0.708359,-1.23317 -2.015045,-1.87413 -3.58789,-1.91601 1.033461,-0.17453 2.150995,-0.34853 3.054687,-0.52344 a 0.68137813,0.68137813 0 0 0 0.01758,-0.002 c 1.63193,-0.35698 2.775314,-0.61257 3.447266,-0.76757 l 0.01172,-0.002 c 0.347581,-0.0744 0.624698,-0.13007 0.816406,-0.16601 0.141552,-0.0265 0.170333,-0.0305 0.1875,-0.0352 0.03743,0.0547 0.113744,0.19667 0.173828,0.45703 A 0.68137813,0.68137813 0 0 0 53,107.42969 c 0.166622,0.54152 0.699378,2.93362 1.513672,6.90234 0.96599,6.4111 1.602615,13.2054 1.908203,20.38672 a 0.68137813,0.68137813 0 0 0 1.185547,0.42969 l 2.279297,-2.50782 0.02148,-0.0234 c 2.793952,-2.79779 5.274853,-6.00496 7.443359,-9.61914 a 0.68137813,0.68137813 0 0 0 0.002,-0.004 c 2.172724,-3.67293 3.316406,-6.41425 3.316406,-8.47656 0,-1.085 -0.702783,-2.06751 -1.847656,-3.04883 -0.965007,-0.82715 -1.373047,-1.65816 -1.373047,-2.62695 0,-0.66879 0.180995,-1.07232 0.535156,-1.39649 0.427174,-0.3443 0.957839,-0.53125 1.699219,-0.53125 z m 30.451176,0 c 3.13436,0 5.58652,0.93128 7.50195,2.79883 1.91418,1.86632 2.86328,4.25851 2.86328,7.33594 0,3.28719 -1.00556,6.7489 -3.05859,10.4043 -2.04745,3.59424 -4.81273,6.63409 -8.31641,9.13671 a 0.68137813,0.68137813 0 0 0 -0.0039,0.004 c -3.434731,2.48894 -6.937684,3.70508 -10.56836,3.70508 -3.350393,0 -5.908748,-0.91615 -7.814453,-2.72656 -1.904838,-1.8096 -2.857422,-4.22407 -2.857422,-7.40821 0,-5.85515 2.285103,-11.15888 6.945313,-16.01953 4.660323,-4.86076 9.725078,-7.23047 15.308598,-7.23047 z m 28.07421,0 c 0.81834,0 1.28735,0.27935 1.70508,1.03125 a 0.68137813,0.68137813 0 0 0 0.0156,0.0234 c 0.46654,0.76344 1.07206,2.53421 1.67773,5.1543 l 0.76367,4.27539 a 0.68137813,0.68137813 0 0 0 1.24414,0.24804 c 2.64507,-4.12019 4.81027,-6.95812 6.41211,-8.46289 a 0.68137813,0.68137813 0 0 0 0.008,-0.008 c 1.60603,-1.55737 3.1206,-2.26172 4.58789,-2.26172 0.78168,0 1.31302,0.21342 1.74414,0.64453 a 0.68137813,0.68137813 0 0 0 0.0449,0.041 c 0.47635,0.39696 0.67578,0.82284 0.67578,1.4707 0,0.81007 -0.18931,1.30019 -0.47852,1.59766 -0.2892,0.29746 -0.74729,0.48242 -1.52539,0.48242 -0.32968,0 -0.95849,-0.16164 -1.78125,-0.54883 l 0.0293,0.0156 c -0.90838,-0.48091 -1.57174,-0.76953 -2.23633,-0.76953 -0.59961,0 -1.12246,0.29357 -1.66406,0.73047 -0.5416,0.43689 -1.11312,1.04984 -1.74609,1.84765 -1.26595,1.59562 -2.77124,3.93649 -4.54493,7.04688 a 0.68137813,0.68137813 0 0 0 -0.0898,0.33789 c 0,0.73847 0.26952,2.05364 0.7832,4.36523 0.51254,2.30637 1.02413,4.48516 1.53711,6.53711 l 0.6875,2.98047 a 0.68137813,0.68137813 0 0 0 0.0117,0.0371 c 0.32044,1.09482 0.68698,1.94715 1.16406,2.57812 0.47709,0.63098 1.13636,1.05664 1.86719,1.05664 0.71257,0 1.36125,-0.36978 1.99219,-0.94336 0.55312,-0.50284 1.18421,-1.26073 1.86914,-2.15234 -1.22181,1.7096 -2.60691,3.75643 -3.33594,4.45508 -1.12831,1.0813 -2.2909,1.57422 -3.59375,1.57422 -1.08907,0 -1.767,-0.29009 -2.23437,-0.83008 -0.48945,-0.61538 -1.05461,-1.92591 -1.55274,-3.86523 l -0.002,-0.008 -2.22266,-9.19531 a 0.68137813,0.68137813 0 0 0 -1.20703,-0.25 c -4.95524,6.58996 -8.22927,10.67459 -9.67773,12.12305 -1.40544,1.40544 -2.69401,2.02539 -3.89063,2.02539 -1.05765,0 -1.78119,-0.26243 -2.29882,-0.74024 a 0.68137813,0.68137813 0 0 0 -0.0234,-0.0195 c -0.50935,-0.43098 -0.75586,-0.9823 -0.75586,-1.85742 0,-0.61565 0.17743,-1.04462 0.56836,-1.43555 a 0.68137813,0.68137813 0 0 0 0.0234,-0.0254 c 0.34271,-0.38079 0.7041,-0.54297 1.25781,-0.54297 0.49008,0 1.22374,0.20792 2.13867,0.68946 a 0.68137813,0.68137813 0 0 0 0.0254,0.0137 c 0.49834,0.23605 0.91724,0.41614 1.26953,0.54297 0.35229,0.12682 0.61572,0.21289 0.93946,0.21289 0.82505,0 1.60344,-0.42001 2.34179,-1.10156 0.73835,-0.68156 1.46838,-1.64876 2.23047,-2.91016 l -0.0254,0.0391 6.28906,-8.97461 a 0.68137813,0.68137813 0 0 0 0.10547,-0.55273 l -2.29883,-9.41992 -0.002,-0.008 c -0.51327,-2.30842 -0.91922,-3.74209 -1.46875,-4.57421 -0.489,-0.82183 -1.42773,-1.24414 -2.49219,-1.24414 -0.36158,-1e-5 -0.72077,0.0804 -1.4707,0.22265 -0.37993,0.0721 -1.05135,0.21449 -1.58008,0.32227 4.10791,-1.32663 6.99785,-2.02149 8.18945,-2.02149 z m 42.49414,0 c 1.64013,0 2.85703,0.35399 3.7168,0.9961 0.85978,0.64211 1.41576,1.58845 1.67383,2.97265 a 0.68137813,0.68137813 0 0 0 1.33203,0.0371 l 0.85938,-3.50586 3.93359,-0.45117 c -2.26288,8.43429 -4.02548,15.21498 -5.17773,19.97266 -0.59568,2.45956 -1.04363,4.42959 -1.34375,5.91406 -0.30013,1.48447 -0.45899,2.44361 -0.45899,3.06836 0,0.44594 0.12244,0.90173 0.44922,1.22851 0.32678,0.32679 0.78257,0.44922 1.22852,0.44922 0.45293,0 0.77893,-0.18343 1.17773,-0.43359 0.3988,-0.25016 0.84964,-0.59988 1.37695,-1.05469 0.35036,-0.30218 0.93863,-0.93743 1.35547,-1.33398 -1.29179,1.42126 -2.89324,3.32604 -3.63672,3.90429 -1.28738,1.0013 -2.55843,1.46875 -3.87695,1.46875 -0.96573,0 -1.55373,-0.2256 -1.89648,-0.56836 -0.26397,-0.26396 -0.49024,-0.86437 -0.49024,-1.89648 0,-1.01911 0.54617,-4.02 1.66797,-8.66016 A 0.68137813,0.68137813 0 0 0 171.375,128.4668 c -3.35666,4.72984 -6.08232,7.91911 -8.07422,9.52343 -1.98555,1.54853 -4.19311,2.3086 -6.71094,2.3086 -2.26147,0 -3.92781,-0.66937 -5.17382,-2.00586 -1.24354,-1.38537 -1.89258,-3.31368 -1.89258,-5.9043 0,-3.81071 1.06302,-7.70809 3.21875,-11.71875 2.20911,-4.01472 4.9823,-7.31188 8.33008,-9.91015 3.34315,-2.59469 6.54262,-3.84571 9.63085,-3.84571 z m -71.488276,0.24805 c -2.79757,0 -5.489858,1.49157 -8.023438,4.28906 -2.517114,2.77931 -4.502968,6.13073 -5.960937,10.03516 -1.454838,3.84492 -2.191407,7.45406 -2.191407,10.82617 0,2.2613 0.574802,4.15582 1.769532,5.57812 a 0.68137813,0.68137813 0 0 0 0.01953,0.0215 c 1.24662,1.35994 2.929485,2.0625 4.875,2.0625 3.043757,0 5.836608,-1.57835 8.273437,-4.54492 2.456708,-2.92859 4.289438,-6.27939 5.490238,-10.03516 l 0.002,-0.008 c 1.24375,-3.73354 1.87305,-7.20377 1.87305,-10.41016 0,-2.20325 -0.5479,-4.07938 -1.67188,-5.54492 -1.07895,-1.47284 -2.63664,-2.26953 -4.455076,-2.26953 z m 71.566406,0.0762 c -2.87516,0 -5.64171,1.69194 -8.27148,4.84766 a 0.68137813,0.68137813 0 0 0 -0.004,0.006 c -2.55021,3.1227 -4.53275,6.53722 -5.93945,10.23633 a 0.68137813,0.68137813 0 0 0 -0.002,0.006 c -1.34615,3.62425 -2.03711,6.62623 -2.03711,9.0586 0,1.84552 0.44158,3.41599 1.36719,4.63086 a 0.68137813,0.68137813 0 0 0 0.0234,0.0293 c 0.98033,1.15333 2.31215,1.77344 3.8164,1.77344 1.159,0 2.3847,-0.34469 3.67969,-0.99219 a 0.68137813,0.68137813 0 0 0 0.01,-0.004 c 1.34068,-0.69716 2.48247,-1.56608 3.41015,-2.60156 2.7141,-2.92416 4.92916,-6.41661 6.64258,-10.46485 l 0.002,-0.006 c 1.76374,-4.04786 2.6621,-7.73952 2.6621,-11.08203 0,-1.56543 -0.50192,-2.92303 -1.49804,-3.92383 -0.95366,-1.00814 -2.29597,-1.51367 -3.86133,-1.51367 z m -71.566406,1.28711 c 1.451856,0 2.497236,0.5324 3.361326,1.71484 a 0.68137813,0.68137813 0 0 0 0.01,0.0137 c 0.91721,1.19238 1.39258,2.73683 1.39258,4.72265 0,3.03 -0.59566,6.35924 -1.80469,9.98633 a 0.68137813,0.68137813 0 0 0 -0.004,0.01 c -1.15079,3.60248 -2.896007,6.79049 -5.242186,9.58593 a 0.68137813,0.68137813 0 0 0 -0.0039,0.006 c -2.267756,2.76075 -4.63941,4.04688 -7.220703,4.04688 -1.6275,0 -2.856215,-0.52371 -3.857422,-1.60938 -0.947687,-1.13357 -1.445312,-2.66108 -1.445312,-4.68945 0,-3.1734 0.694692,-6.62043 2.103515,-10.34375 a 0.68137813,0.68137813 0 0 0 0.002,-0.004 c 1.405607,-3.76501 3.30579,-6.95706 5.697266,-9.59765 2.375554,-2.62301 4.695607,-3.8418 7.011719,-3.8418 z m 71.566406,0.0762 c 1.29395,0 2.19666,0.36496 2.87891,1.08985 a 0.68137813,0.68137813 0 0 0 0.0137,0.0156 c 0.73708,0.73708 1.10351,1.67481 1.10351,2.96875 0,3.09906 -0.83897,6.61589 -2.55078,10.54297 a 0.68137813,0.68137813 0 0 0 -0.002,0.008 c -1.66027,3.92429 -3.79189,7.27934 -6.39258,10.08008 a 0.68137813,0.68137813 0 0 0 -0.008,0.01 c -0.80774,0.90277 -1.81042,1.66863 -3.01953,2.29882 -0.001,6.9e-4 -0.003,-6.8e-4 -0.004,0 -1.15789,0.57837 -2.18098,0.84766 -3.06641,0.84766 -1.14729,0 -2.00891,-0.39938 -2.76367,-1.2793 -0.70486,-0.93151 -1.08007,-2.16624 -1.08008,-3.79101 0,-2.16901 0.6374,-5.04725 1.94922,-8.58008 l 0.002,-0.004 c 1.35375,-3.55856 3.25677,-6.83856 5.71484,-9.84961 2.48391,-2.98068 4.88381,-4.35742 7.22461,-4.35742 z"
       id="text1" />
    <path
       style="color:#000000;-inkscape-font-specification:'Kinnari, Italic';fill:#999999;stroke-linecap:round;stroke-linejoin:round;-inkscape-stroke:none;paint-order:fill markers stroke"
       d="m 53.414062,106.08008 c -0.22146,0 -0.29511,0.0301 -0.509765,0.0703 -0.214655,0.0403 -0.500121,0.0984 -0.861328,0.17578 a 0.68137813,0.68137813 0 0 0 -0.0098,0.002 c -0.658561,0.15197 -1.809968,0.40789 -3.445312,0.76562 -1.570653,0.30374 -3.345349,0.60737 -5.326172,0.91211 a 0.68137813,0.68137813 0 0 0 -0.578125,0.67383 v 0.99804 a 0.68137813,0.68137813 0 0 0 0.742187,0.67774 c 0.527284,-0.0479 1.280587,-0.0742 2.240235,-0.0742 1.318513,0 2.056389,0.39897 2.552734,1.26758 a 0.68137813,0.68137813 0 0 0 0.0078,0.0117 c 0.478755,0.79792 1.090497,3.07481 1.597657,6.57422 a 0.68137813,0.68137813 0 0 0 0.002,0.0137 c 0.403379,2.47069 0.787379,6.0367 1.144531,10.67968 0.3573,4.64489 0.533203,8.11503 0.533203,10.38086 0,0.94885 0.05238,1.67242 0.19336,2.23633 0.07049,0.28196 0.15853,0.52843 0.332031,0.75977 0.173501,0.23133 0.505495,0.44531 0.847656,0.44531 0.904148,0 1.651162,-0.57845 2.726563,-1.50781 1.0754,-0.92936 2.399401,-2.28713 3.996093,-4.08985 3.24412,-3.65607 6.810365,-8.22484 10.707032,-13.71093 a 0.68137813,0.68137813 0 0 0 0.002,-0.004 c 1.359635,-1.93487 2.483676,-4.05211 3.371093,-6.3457 l 0.002,-0.008 c 0.936737,-2.29144 1.429687,-4.16703 1.429687,-5.69727 0,-1.38083 -0.517579,-2.62901 -1.490234,-3.60938 -0.919304,-1.02663 -2.103883,-1.59765 -3.408203,-1.59765 -0.989558,0 -1.884442,0.27654 -2.580079,0.8457 a 0.68137813,0.68137813 0 0 0 -0.02344,0.0195 c -0.66059,0.59453 -0.994141,1.4637 -0.994141,2.42383 0,1.3835 0.666869,2.64833 1.84961,3.66211 1.002872,0.8596 1.373047,1.56652 1.373047,2.01563 0,1.51726 -1.004185,4.19471 -3.126954,7.7832 -2.120689,3.53383 -4.540984,6.65817 -7.259765,9.37695 a 0.68137813,0.68137813 0 0 0 -0.02148,0.0234 l -1.226562,1.34765 C 57.87182,126.95205 57.289774,120.6144 56.388672,114.63867 a 0.68137813,0.68137813 0 0 0 -0.0059,-0.0371 c -0.814149,-3.96898 -1.297461,-6.20256 -1.541015,-7.00195 -0.08959,-0.38615 -0.207451,-0.71754 -0.427735,-1.00391 -0.221526,-0.28798 -0.610139,-0.51562 -1,-0.51562 z m 47.249998,0 c -5.973402,0 -11.441842,2.59062 -16.292966,7.65039 -4.851238,5.0599 -7.324219,10.74976 -7.324219,16.96289 0,3.46365 1.095143,6.31773 3.28125,8.39453 2.185241,2.07598 5.149692,3.10352 8.753906,3.10352 3.936748,0 7.743768,-1.33923 11.365239,-3.96289 l 0.002,-0.002 c 3.65317,-2.60987 6.56192,-5.80525 8.70703,-9.57226 a 0.68137813,0.68137813 0 0 0 0.002,-0.004 c 2.14019,-3.81058 3.23243,-7.50713 3.23243,-11.07226 -1e-5,-3.36582 -1.09668,-6.19016 -3.27344,-8.3125 -2.17552,-2.12113 -5.04198,-3.18555 -8.45313,-3.18555 z m 28.07422,0 c -1.71007,0 -4.66633,0.76984 -9.1875,2.25976 l -0.81055,0.21875 A 0.68137813,0.68137813 0 0 0 118.25,109.3418 l 0.23047,1.22851 a 0.68137813,0.68137813 0 0 0 0.81055,0.54102 c 1.32696,-0.28071 2.35876,-0.49184 3.09179,-0.63086 0.73304,-0.13902 1.27157,-0.19922 1.2168,-0.19922 0.76906,0 1.09824,0.18793 1.32812,0.58203 a 0.68137813,0.68137813 0 0 0 0.0215,0.0352 c 0.26374,0.3956 0.77739,1.86646 1.2832,4.14258 a 0.68137813,0.68137813 0 0 0 0.002,0.0137 l 2.22851,9.13476 -6.11133,8.72071 a 0.68137813,0.68137813 0 0 0 -0.0254,0.0391 c -0.72087,1.19317 -1.39708,2.06755 -1.98828,2.61328 -0.5912,0.54573 -1.06687,0.74023 -1.41797,0.74023 0.0169,0 -0.1916,-0.0295 -0.47851,-0.13281 -0.28692,-0.10329 -0.67518,-0.26801 -1.14844,-0.49219 l 0.0273,0.0137 c -1.02827,-0.5412 -1.93396,-0.84571 -2.77343,-0.84571 -0.87228,0 -1.67884,0.34864 -2.25586,0.98242 -0.6232,0.63039 -0.95508,1.47084 -0.95508,2.38282 0,1.16571 0.41669,2.19472 1.23047,2.88867 0.81078,0.7409 1.92155,1.0918 3.20898,1.0918 1.66705,0 3.29303,-0.86334 4.85352,-2.42383 1.47429,-1.47429 4.68879,-5.57484 8.92382,-11.16797 l 1.89844,7.85351 a 0.68137813,0.68137813 0 0 0 0.002,0.01 c 0.52244,2.03749 1.08051,3.47856 1.81641,4.39844 a 0.68137813,0.68137813 0 0 0 0.0137,0.0176 c 0.75971,0.88632 1.91954,1.3125 3.2793,1.3125 1.66308,0 3.21085,-0.68409 4.53711,-1.95508 1.31943,-1.26446 3.07811,-3.62993 5.39062,-7.17578 a 0.68137813,0.68137813 0 0 0 -0.25,-0.97266 l -1.15039,-0.61523 a 0.68137813,0.68137813 0 0 0 -0.84375,0.16601 c -0.27712,0.33256 -0.80893,1.01755 -1.6289,2.09375 a 0.68137813,0.68137813 0 0 0 -0.004,0.004 c -0.75179,1.00239 -1.39697,1.74405 -1.90625,2.20703 -0.49406,0.44915 -0.86827,0.58984 -1.07617,0.58984 -0.24077,0 -0.46376,-0.0983 -0.7793,-0.51562 -0.31495,-0.41655 -0.65054,-1.13785 -0.94336,-2.13672 -5.4e-4,-0.002 -0.001,-0.002 -0.002,-0.004 l -0.67969,-2.95312 a 0.68137813,0.68137813 0 0 0 -0.004,-0.0117 c -0.50976,-2.03899 -1.01909,-4.20601 -1.5293,-6.50195 -0.48973,-2.20381 -0.70497,-3.55466 -0.72266,-3.91602 1.6945,-2.95579 3.15335,-5.2348 4.31055,-6.69336 0.59431,-0.74908 1.11794,-1.29626 1.53516,-1.63281 0.41721,-0.33655 0.71785,-0.42969 0.80859,-0.42969 0.1536,0 0.76739,0.17178 1.59766,0.61133 a 0.68137813,0.68137813 0 0 0 0.0293,0.0156 c 0.9159,0.43102 1.66828,0.67774 2.36133,0.67774 1.01169,0 1.89626,-0.27349 2.50195,-0.89649 0.6057,-0.623 0.86329,-1.51601 0.86329,-2.54687 0,-0.97638 -0.40903,-1.86544 -1.14258,-2.49023 -0.69212,-0.68051 -1.63466,-1.0293 -2.6836,-1.0293 -1.90496,0 -3.76066,0.93001 -5.52734,2.64062 -1.54172,1.44828 -3.46019,4.00401 -5.67383,7.33594 l -0.47656,-2.66406 a 0.68137813,0.68137813 0 0 0 -0.008,-0.0332 c -0.61808,-2.6783 -1.18523,-4.47798 -1.83985,-5.55469 -0.60598,-1.08281 -1.66539,-1.72461 -2.88867,-1.72461 z m 42.49414,0 c -3.45728,0 -6.95567,1.40928 -10.46484,4.13281 -3.50279,2.71859 -6.40301,6.16971 -8.69336,10.33399 a 0.68137813,0.68137813 0 0 0 -0.004,0.006 c -2.24204,4.17125 -3.3789,8.30088 -3.3789,12.36524 0,2.82594 0.73194,5.13987 2.24609,6.82226 a 0.68137813,0.68137813 0 0 0 0.008,0.01 c 1.51505,1.62726 3.63028,2.44141 6.17383,2.44141 2.79887,0 5.34599,-0.87728 7.55273,-2.59961 a 0.68137813,0.68137813 0 0 0 0.008,-0.006 c 1.78127,-1.43371 4.02841,-4.10466 6.57617,-7.50196 -0.52935,2.43244 -1.16406,5.14763 -1.16406,6.12696 0,1.21792 0.23216,2.20287 0.88867,2.85937 0.67998,0.67998 1.67931,0.9668 2.86133,0.9668 1.64742,0 3.23888,-0.60746 4.71289,-1.75391 1.48181,-1.15252 3.59866,-3.43942 6.47461,-6.93164 a 0.68137813,0.68137813 0 0 0 -0.0899,-0.95703 l -0.91992,-0.76562 a 0.68137813,0.68137813 0 0 0 -0.93359,0.0547 c -1.65298,1.75471 -2.98377,3.06728 -3.97461,3.92188 -0.49542,0.4273 -0.90857,0.74074 -1.21289,0.93164 -0.30433,0.1909 -0.52253,0.22656 -0.45313,0.22656 -0.21884,0 -0.26001,-0.0452 -0.26562,-0.0508 -0.006,-0.006 -0.0488,-0.0468 -0.0488,-0.26562 0,-0.34685 0.1373,-1.34294 0.43164,-2.79883 0.29434,-1.4559 0.73878,-3.41176 1.33203,-5.86133 1.18651,-4.89914 2.96865,-11.77354 5.3457,-20.61719 a 0.68137813,0.68137813 0 0 0 -0.35351,-0.78711 l -0.45899,-0.23047 a 0.68137813,0.68137813 0 0 0 -0.38281,-0.0664 l -4.67969,0.53711 a 0.68137813,0.68137813 0 0 0 -0.40429,0.19336 l -0.23047,0.23047 a 0.68137813,0.68137813 0 0 0 -0.17969,0.32031 l -0.38672,1.57812 c -0.36455,-0.63019 -0.82814,-1.17028 -1.40039,-1.59765 -1.16013,-0.86643 -2.69407,-1.26758 -4.53125,-1.26758 z m -101.019529,1.36328 c 0.939198,0 1.689122,0.34777 2.404296,1.15234 a 0.68137813,0.68137813 0 0 0 0.02734,0.0293 c 0.755971,0.75597 1.105469,1.59569 1.105469,2.66211 0,1.22929 -0.428107,2.98463 -1.330078,5.18945 a 0.68137813,0.68137813 0 0 0 -0.0059,0.0117 c -0.850381,2.20099 -1.924027,4.22114 -3.220703,6.06641 -3.875406,5.45601 -7.414671,9.98896 -10.613281,13.59375 -1.573789,1.77686 -2.871547,3.10246 -3.867187,3.96289 -0.904631,0.78178 -1.493092,1.01607 -1.667969,1.07031 -0.01147,-0.0341 -0.01429,-0.024 -0.02539,-0.0684 -0.08914,-0.35655 -0.152343,-1.01222 -0.152344,-1.9043 0,-2.33648 -0.180445,-5.82236 -0.539062,-10.48437 -0.358371,-4.65882 -0.740008,-8.24493 -1.154297,-10.78516 l -0.002,-0.01 c -0.514439,-3.54682 -1.029014,-5.81548 -1.775391,-7.0625 -0.707677,-1.23199 -2.013188,-1.87297 -3.583984,-1.91602 1.032016,-0.1743 2.148212,-0.34875 3.050781,-0.52344 a 0.68137813,0.68137813 0 0 0 0.01758,-0.004 c 1.63193,-0.35699 2.775313,-0.61062 3.447266,-0.76563 l 0.01172,-0.002 c 0.347585,-0.0744 0.624697,-0.13202 0.816406,-0.16797 0.142908,-0.0268 0.174418,-0.0286 0.189453,-0.0332 0.03765,0.0555 0.112086,0.19794 0.171875,0.45703 a 0.68137813,0.68137813 0 0 0 0.01172,0.0469 c 0.166622,0.54153 0.699379,2.93363 1.513672,6.90235 0.96599,6.4111 1.602615,13.2054 1.908203,20.38672 a 0.68137813,0.68137813 0 0 0 1.185547,0.42968 l 2.279297,-2.50781 0.02148,-0.0234 c 2.793952,-2.79778 5.274852,-6.00496 7.443359,-9.61914 a 0.68137813,0.68137813 0 0 0 0.002,-0.004 c 2.172725,-3.67294 3.316407,-6.41425 3.316407,-8.47656 0,-1.085 -0.702783,-2.06752 -1.847657,-3.04883 -0.965006,-0.82715 -1.373046,-1.66012 -1.373046,-2.62891 0,-0.66878 0.181005,-1.07037 0.535156,-1.39453 0.427174,-0.3443 0.957839,-0.53125 1.699219,-0.53125 z m 30.451169,0 c 3.13437,0 5.58652,0.93128 7.50196,2.79883 1.91417,1.86632 2.86132,4.2585 2.86132,7.33594 0,3.28718 -1.00361,6.7489 -3.05664,10.40429 -2.04745,3.59425 -4.81272,6.6341 -8.316403,9.13672 a 0.68137813,0.68137813 0 0 0 -0.0039,0.004 c -3.434731,2.48894 -6.937684,3.70507 -10.56836,3.70507 -3.350393,0 -5.910702,-0.91614 -7.816406,-2.72656 -1.904839,-1.80959 -2.855469,-4.22406 -2.855469,-7.4082 0,-5.85515 2.283149,-11.15888 6.94336,-16.01953 4.660323,-4.86077 9.727036,-7.23047 15.310544,-7.23047 z m 28.07422,0 c 0.81835,0 1.28736,0.2774 1.70508,1.0293 a 0.68137813,0.68137813 0 0 0 0.0137,0.0254 c 0.46655,0.76344 1.07402,2.53421 1.67969,5.15429 l 0.76367,4.27539 a 0.68137813,0.68137813 0 0 0 1.24414,0.24805 c 2.64506,-4.1202 4.81026,-6.95813 6.41211,-8.46289 a 0.68137813,0.68137813 0 0 0 0.008,-0.008 c 1.60603,-1.55737 3.1206,-2.26172 4.58789,-2.26172 0.78168,0 1.31303,0.21341 1.74414,0.64453 a 0.68137813,0.68137813 0 0 0 0.0449,0.041 c 0.47636,0.39696 0.67578,0.82284 0.67578,1.4707 0,0.81007 -0.18932,1.29824 -0.47852,1.5957 -0.2892,0.29747 -0.74729,0.48438 -1.52539,0.48438 -0.32968,0 -0.95849,-0.16165 -1.78125,-0.54883 l 0.0293,0.0156 c -0.90838,-0.4809 -1.57175,-0.76953 -2.23633,-0.76953 -0.59961,0 -1.12246,0.29358 -1.66406,0.73047 -0.5416,0.43689 -1.11312,1.04985 -1.7461,1.84766 -1.26594,1.59561 -2.77123,3.93649 -4.54492,7.04687 a 0.68137813,0.68137813 0 0 0 -0.0898,0.33789 c 0,0.73847 0.26952,2.05365 0.7832,4.36524 0.51253,2.30637 1.02412,4.48516 1.53711,6.53711 l 0.6875,2.98047 a 0.68137813,0.68137813 0 0 0 0.01,0.0371 c 0.32043,1.09482 0.68893,1.94714 1.16601,2.57812 0.47708,0.63098 1.13636,1.05664 1.86719,1.05664 0.71257,0 1.36125,-0.36978 1.99219,-0.94336 0.55313,-0.50284 1.1842,-1.26073 1.86914,-2.15234 -1.22181,1.7096 -2.60692,3.75643 -3.33594,4.45508 -1.12831,1.08129 -2.2909,1.57422 -3.59375,1.57421 -1.08907,10e-6 -1.767,-0.29007 -2.23438,-0.83007 -0.48943,-0.61538 -1.0546,-1.92592 -1.55273,-3.86524 l -0.002,-0.008 -2.22266,-9.19531 a 0.68137813,0.68137813 0 0 0 -1.20703,-0.25 c -4.95524,6.58996 -8.22928,10.67459 -9.67773,12.12304 -1.40545,1.40545 -2.69401,2.02539 -3.89063,2.02539 -1.05766,0 -1.7812,-0.26242 -2.29883,-0.74023 a 0.68137813,0.68137813 0 0 0 -0.0234,-0.0195 c -0.50935,-0.43099 -0.75586,-0.9823 -0.75586,-1.85742 0,-0.61565 0.17743,-1.04462 0.56836,-1.43555 a 0.68137813,0.68137813 0 0 0 0.0234,-0.0254 c 0.34273,-0.3808 0.70412,-0.54297 1.25782,-0.54297 0.49008,0 1.22374,0.20792 2.13867,0.68945 a 0.68137813,0.68137813 0 0 0 0.0254,0.0137 c 0.49833,0.23605 0.91723,0.41614 1.26953,0.54296 0.35229,0.12683 0.61571,0.2129 0.93945,0.2129 0.82505,0 1.60345,-0.42001 2.3418,-1.10157 0.73835,-0.68155 1.46837,-1.64875 2.23047,-2.91015 l -0.0254,0.0391 6.28906,-8.97461 a 0.68137813,0.68137813 0 0 0 0.10351,-0.55273 l -2.29687,-9.42188 -0.002,-0.008 c -0.51328,-2.30842 -0.91922,-3.74015 -1.46875,-4.57227 -0.48899,-0.82184 -1.42773,-1.24609 -2.49219,-1.24609 -0.36159,0 -0.72077,0.0824 -1.4707,0.22461 -0.37994,0.0721 -1.05135,0.21449 -1.58008,0.32226 4.10791,-1.32662 6.99785,-2.02148 8.18945,-2.02148 z m 42.49414,0 c 1.64013,0 2.85507,0.35398 3.71485,0.99609 0.85977,0.64211 1.4177,1.58846 1.67578,2.97266 a 0.68137813,0.68137813 0 0 0 1.33203,0.0371 l 0.85937,-3.50586 3.9336,-0.45117 c -2.26288,8.43428 -4.02549,15.21497 -5.17774,19.97265 -0.59567,2.45957 -1.04363,4.4296 -1.34375,5.91407 -0.30012,1.48447 -0.45898,2.4436 -0.45898,3.06836 0,0.44594 0.12244,0.90173 0.44922,1.22851 0.32678,0.32678 0.78257,0.44922 1.22851,0.44922 0.45293,0 0.77893,-0.18343 1.17774,-0.43359 0.3988,-0.25016 0.84963,-0.59988 1.37695,-1.05469 0.35036,-0.30219 0.93862,-0.93744 1.35547,-1.33399 -1.29179,1.42127 -2.89325,3.32604 -3.63672,3.9043 -1.28739,1.0013 -2.55844,1.46875 -3.87695,1.46875 -0.96573,0 -1.55374,-0.22561 -1.89649,-0.56836 -0.26396,-0.26396 -0.49218,-0.86438 -0.49219,-1.89648 0,-1.01911 0.54814,-4.02001 1.66993,-8.66016 a 0.68137813,0.68137813 0 0 0 -1.21875,-0.55469 c -3.35666,4.72984 -6.08232,7.91911 -8.07422,9.52344 -1.98555,1.54853 -4.1931,2.30859 -6.71094,2.30859 -2.26146,0 -3.9278,-0.66936 -5.17383,-2.00585 -1.24353,-1.38537 -1.89258,-3.31368 -1.89258,-5.9043 0,-3.80888 1.06121,-7.70427 3.21485,-11.71289 2.20968,-4.01761 4.98443,-7.31637 8.33398,-9.91602 3.34316,-2.59468 6.54263,-3.8457 9.63086,-3.8457 z m -71.488279,0.24805 c -2.79757,0 -5.489858,1.49157 -8.023438,4.28906 -2.517114,2.77931 -4.502968,6.13073 -5.960937,10.03516 -1.454838,3.84492 -2.191407,7.45405 -2.191407,10.82617 0,2.26129 0.574802,4.15582 1.769532,5.57812 a 0.68137813,0.68137813 0 0 0 0.01953,0.0215 c 1.246619,1.35994 2.929484,2.0625 4.875,2.0625 3.043757,0 5.836607,-1.57835 8.273437,-4.54493 2.456541,-2.92839 4.287481,-6.27969 5.488281,-10.03515 1.24554,-3.73661 1.87695,-7.20927 1.87695,-10.41797 0,-2.20326 -0.54789,-4.07938 -1.67187,-5.54492 -1.07895,-1.47284 -2.63664,-2.26953 -4.455079,-2.26953 z m 71.566409,0.0762 c -2.87516,0 -5.64171,1.69193 -8.27149,4.84765 a 0.68137813,0.68137813 0 0 0 -0.004,0.006 c -2.55021,3.1227 -4.53276,6.53722 -5.93946,10.23633 a 0.68137813,0.68137813 0 0 0 -0.002,0.006 c -1.34615,3.62425 -2.03711,6.62622 -2.03711,9.05859 0,1.84553 0.44158,3.416 1.36719,4.63086 a 0.68137813,0.68137813 0 0 0 0.0234,0.0293 c 0.98033,1.15333 2.31215,1.77344 3.8164,1.77344 1.159,0 2.38469,-0.3447 3.67969,-0.99219 a 0.68137813,0.68137813 0 0 0 0.01,-0.006 c 1.34068,-0.69715 2.48248,-1.56412 3.41016,-2.59961 2.71409,-2.92415 4.92916,-6.4166 6.64258,-10.46484 l 0.002,-0.006 c 1.76374,-4.04787 2.66211,-7.73953 2.66211,-11.08203 0,-1.56543 -0.50193,-2.92303 -1.49805,-3.92383 -0.95366,-1.00814 -2.29597,-1.51367 -3.86132,-1.51367 z m -71.566409,1.28711 c 1.451859,0 2.497239,0.5324 3.361329,1.71484 a 0.68137813,0.68137813 0 0 0 0.01,0.0137 c 0.91722,1.19238 1.39258,2.73684 1.39258,4.72266 0,3.03 -0.59565,6.35924 -1.80468,9.98633 a 0.68137813,0.68137813 0 0 0 -0.004,0.008 c -1.15079,3.60248 -2.896009,6.79244 -5.242189,9.58789 a 0.68137813,0.68137813 0 0 0 -0.0039,0.006 c -2.267757,2.76074 -4.63941,4.04687 -7.220703,4.04687 -1.627496,10e-6 -2.856216,-0.52371 -3.857422,-1.60937 -0.947687,-1.13357 -1.445313,-2.66109 -1.445313,-4.68945 10e-7,-3.1734 0.694692,-6.62043 2.103516,-10.34375 a 0.68137813,0.68137813 0 0 0 0.002,-0.004 c 1.405607,-3.76502 3.303837,-6.95707 5.695313,-9.59766 2.375554,-2.623 4.69756,-3.84179 7.013672,-3.84179 z m 71.566409,0.0762 c 1.29394,0 2.19665,0.36495 2.8789,1.08984 a 0.68137813,0.68137813 0 0 0 0.0137,0.0137 c 0.73708,0.73707 1.10352,1.67676 1.10352,2.9707 0,3.09906 -0.83898,6.61589 -2.55078,10.54297 a 0.68137813,0.68137813 0 0 0 -0.002,0.008 c -1.66028,3.92429 -3.7919,7.27933 -6.39258,10.08008 a 0.68137813,0.68137813 0 0 0 -0.008,0.01 c -0.80957,0.90481 -1.81456,1.66978 -3.02735,2.30078 -8.7e-4,4.6e-4 -0.001,0.001 -0.002,0.002 -1.15489,0.57585 -2.17698,0.84375 -3.06055,0.84375 -1.1473,0 -2.00891,-0.39938 -2.76367,-1.2793 -0.70486,-0.93151 -1.08008,-2.16624 -1.08008,-3.79102 0,-2.16901 0.63739,-5.04725 1.94922,-8.58007 l 0.002,-0.004 c 1.35376,-3.55856 3.25678,-6.83856 5.71485,-9.84961 2.48391,-2.98068 4.88381,-4.35742 7.22461,-4.35742 z"
       id="text2" />
    <path
       style="color:#000000;-inkscape-font-specification:'Kinnari, Italic';fill:#ffffff;stroke-linecap:round;stroke-linejoin:round;-inkscape-stroke:none;paint-order:fill markers stroke"
       d="m 52.884766,106.10742 c -0.08239,0 -0.199849,0.0219 -0.40625,0.0605 -0.206402,0.0387 -0.489102,0.095 -0.847657,0.17187 a 0.1250125,0.1250125 0 0 0 -0.002,0.002 c -0.663638,0.15315 -1.814984,0.4077 -3.451172,0.76562 -1.582441,0.30622 -3.369671,0.61352 -5.361328,0.91992 a 0.1250125,0.1250125 0 0 0 -0.105469,0.12305 v 0.99805 a 0.1250125,0.1250125 0 0 0 0.136719,0.12304 c 0.556043,-0.0505 1.319656,-0.0762 2.289063,-0.0762 1.452795,0 2.444988,0.51262 3.037109,1.54883 a 0.1250125,0.1250125 0 0 0 0,0.002 c 0.588894,0.98149 1.161279,3.25814 1.671875,6.78125 a 0.1250125,0.1250125 0 0 0 0,0.002 c 0.408046,2.49928 0.792581,6.07698 1.150391,10.72851 0.357837,4.65188 0.535156,8.1272 0.535156,10.42188 0,0.92567 0.05792,1.62231 0.177734,2.10156 0.05991,0.23963 0.134035,0.42611 0.236328,0.5625 0.102294,0.13639 0.24562,0.22266 0.402344,0.22266 0.562554,0 1.320444,-0.47183 2.363281,-1.37305 1.042838,-0.90122 2.356018,-2.2469 3.94336,-4.03906 3.225748,-3.63537 6.78164,-8.18978 10.669922,-13.66407 1.335264,-1.90018 2.439798,-3.9799 3.3125,-6.23828 v -0.002 c 0.92333,-2.25743 1.390625,-4.08412 1.390625,-5.49219 0,-1.25584 -0.451063,-2.34072 -1.339844,-3.23047 -0.836324,-0.9388 -1.846625,-1.41992 -3.003906,-1.41992 -0.891385,0 -1.641585,0.23853 -2.228516,0.71875 a 0.1250125,0.1250125 0 0 0 -0.0039,0.004 c -0.538746,0.48486 -0.808594,1.16748 -0.808594,2.01172 0,1.21419 0.56045,2.30069 1.654297,3.23828 1.060846,0.90929 1.568359,1.72878 1.568359,2.4375 0,1.73979 -1.061914,4.44344 -3.205078,8.0664 -2.142882,3.57147 -4.59,6.73258 -7.34375,9.48633 a 0.1250125,0.1250125 0 0 0 -0.0039,0.004 l -2.103516,2.31445 c -0.311906,-7.10203 -0.941753,-13.83999 -1.90039,-20.19726 a 0.1250125,0.1250125 0 0 0 0,-0.006 c -0.817407,-3.98486 -1.323294,-6.29433 -1.535157,-6.98438 v -0.002 c -0.07904,-0.34172 -0.185351,-0.60483 -0.330078,-0.79297 -0.14503,-0.18854 -0.340924,-0.29883 -0.558593,-0.29883 z m 47.250004,0 c -5.814233,0 -11.117402,2.49999 -15.890629,7.47852 -4.773248,4.97855 -7.169922,10.51114 -7.169922,16.57812 0,3.34954 1.036147,6.02448 3.107422,7.99219 2.071116,1.96756 4.870505,2.94922 8.371093,2.94922 3.812278,0 7.495383,-1.29007 11.041016,-3.85938 3.59328,-2.56662 6.4452,-5.69886 8.55078,-9.39648 a 0.1250125,0.1250125 0 0 0 0,-0.002 c 2.10461,-3.74723 3.16016,-7.34717 3.16016,-10.79883 0,-3.24808 -1.03591,-5.89625 -3.10547,-7.91406 -2.06933,-2.0176 -4.76631,-3.02735 -8.06445,-3.02735 z m 28.07421,0 c -1.52463,0 -4.50976,0.74623 -9.01367,2.23047 l -0.83789,0.22852 a 0.1250125,0.1250125 0 0 0 -0.0898,0.14453 l 0.23047,1.22656 a 0.1250125,0.1250125 0 0 0 0.14843,0.0996 c 1.32908,-0.28115 2.36359,-0.49248 3.10352,-0.63281 0.73993,-0.14033 1.2051,-0.20899 1.32031,-0.20899 0.89269,0 1.47413,0.28602 1.8086,0.85938 a 0.1250125,0.1250125 0 0 0 0.004,0.006 c 0.38243,0.57363 0.85294,2.03351 1.36328,4.33008 a 0.1250125,0.1250125 0 0 0 0,0.002 l 2.28907,9.38086 -6.25782,8.92773 a 0.1250125,0.1250125 0 0 0 -0.006,0.008 c -0.7377,1.22103 -1.43465,2.1332 -2.08593,2.73438 -0.65128,0.60118 -1.25033,0.88672 -1.79492,0.88672 -0.12216,0 -0.35437,-0.0531 -0.66797,-0.16602 -0.31256,-0.11252 -0.71009,-0.28189 -1.19141,-0.50976 l -0.004,-0.002 c -0.9799,-0.51516 -1.81407,-0.77929 -2.50976,-0.77929 -0.74502,0 -1.3719,0.27421 -1.85352,0.80859 -0.53045,0.53276 -0.80273,1.20744 -0.80273,2 0,1.04765 0.34862,1.88425 1.03906,2.4707 6.5e-4,6e-4 0.001,0.001 0.002,0.002 0.69163,0.63735 1.64699,0.95117 2.84375,0.95117 1.47499,0 2.96375,-0.76453 4.46094,-2.26172 1.52432,-1.52431 4.76788,-5.6006 9.5918,-12.00781 l 2.16406,8.95703 a 0.1250125,0.1250125 0 0 0 0,0.002 c 0.5134,2.00226 1.07486,3.39436 1.71094,4.18945 a 0.1250125,0.1250125 0 0 0 0.002,0.004 c 0.64044,0.74718 1.60583,1.11719 2.85742,1.11719 1.51601,0 2.9069,-0.60528 4.15235,-1.79883 1.24419,-1.19235 3.00731,-3.54649 5.31054,-7.07812 a 0.1250125,0.1250125 0 0 0 -0.0469,-0.17969 l -1.15039,-0.61328 a 0.1250125,0.1250125 0 0 0 -0.1543,0.0293 c -0.25962,0.31155 -0.79671,1.00188 -1.61523,2.07618 -0.76426,1.019 -1.42578,1.78266 -1.97852,2.28515 -0.54995,0.49995 -1.03528,0.73438 -1.44922,0.73438 -0.44084,0 -0.84312,-0.23178 -1.22461,-0.73633 -0.38149,-0.50455 -0.72888,-1.28055 -1.0332,-2.32031 l -0.68945,-2.98438 a 0.1250125,0.1250125 0 0 0 0,-0.002 c -0.51107,-2.04428 -1.02205,-4.21543 -1.53321,-6.51563 -0.50786,-2.28538 -0.75673,-3.68773 -0.75976,-4.16601 1.75103,-3.06765 3.24097,-5.37988 4.45508,-6.91016 0.61009,-0.76897 1.15309,-1.34318 1.62109,-1.7207 0.468,-0.37752 0.85971,-0.55078 1.1582,-0.55078 0.36222,0 0.99722,0.21935 1.85938,0.67578 a 0.1250125,0.1250125 0 0 0 0.004,0.002 c 0.87787,0.41312 1.5803,0.625 2.125,0.625 0.91633,0 1.62704,-0.23842 2.10352,-0.72851 0.47648,-0.4901 0.70703,-1.21749 0.70703,-2.15821 0,-0.84789 -0.32832,-1.55391 -0.96484,-2.08593 -9.1e-4,-9.1e-4 -0.001,-0.003 -0.002,-0.004 -0.58558,-0.58063 -1.36359,-0.87305 -2.30468,-0.87305 -1.72718,0 -3.44474,0.83882 -5.14649,2.48828 -1.66209,1.56136 -3.79078,4.3756 -6.36523,8.36133 l -0.71485,-3.99609 a 0.1250125,0.1250125 0 0 0 0,-0.006 c -0.61435,-2.66217 -1.19789,-4.45288 -1.77734,-5.40235 l -0.002,-0.002 c -0.52861,-0.94964 -1.34896,-1.44336 -2.40821,-1.44336 z m 42.49414,0 c -3.30661,0 -6.6836,1.3447 -10.125,4.01563 -3.44022,2.67002 -6.28945,6.05966 -8.54687,10.16406 -2.2068,4.10568 -3.3125,8.14076 -3.3125,12.10156 0,2.73148 0.69638,4.88986 2.10156,6.45117 a 0.1250125,0.1250125 0 0 0 0.002,0.002 c 1.40534,1.50944 3.33843,2.26367 5.76757,2.26367 2.68476,0 5.09412,-0.82832 7.21094,-2.48047 a 0.1250125,0.1250125 0 0 0 0.002,-0.002 c 2.04135,-1.64304 4.69244,-4.77905 7.90821,-9.26758 -0.99668,4.18859 -1.5918,7.13553 -1.5918,8.32617 0,1.14206 0.23032,1.97055 0.72656,2.4668 0.54231,0.5423 1.37309,0.80273 2.4668,0.80273 1.51314,0 2.97328,-0.54953 4.37109,-1.63672 1.39925,-1.0883 3.52081,-3.36566 6.38672,-6.8457 a 0.1250125,0.1250125 0 0 0 -0.0156,-0.17578 l -0.92188,-0.76758 a 0.1250125,0.1250125 0 0 0 -0.16992,0.0117 c -1.6603,1.76247 -3.00069,3.08387 -4.01758,3.96094 -0.50844,0.43853 -0.9364,0.76537 -1.27929,0.98047 -0.3429,0.21509 -0.60616,0.31054 -0.75,0.31054 -0.31156,0 -0.52148,-0.0742 -0.65821,-0.21094 -0.13673,-0.13673 -0.21289,-0.34859 -0.21289,-0.66015 0,-0.46031 0.14666,-1.4426 0.44336,-2.91016 0.2967,-1.46756 0.74169,-3.42721 1.33594,-5.88086 1.18849,-4.9073 2.97189,-11.78474 5.34961,-20.63086 a 0.1250125,0.1250125 0 0 0 -0.0645,-0.14453 l -0.46093,-0.23047 a 0.1250125,0.1250125 0 0 0 -0.0703,-0.0117 l -4.67773,0.5371 a 0.1250125,0.1250125 0 0 0 -0.0742,0.0352 l -0.23047,0.23047 a 0.1250125,0.1250125 0 0 0 -0.0332,0.0586 l -0.82031,3.35352 c -0.32533,-1.30788 -0.90815,-2.36473 -1.83985,-3.06055 -1.0375,-0.77484 -2.44249,-1.15625 -4.19922,-1.15625 z m -117.818354,0.25 c 0.140288,0 0.250674,0.0573 0.361328,0.20117 0.110654,0.14385 0.208893,0.37721 0.283203,0.69922 a 0.1250125,0.1250125 0 0 0 0.002,0.01 c 0.197659,0.64239 0.713198,2.9788 1.53125,6.9668 0.970389,6.43671 1.609455,13.25675 1.916016,20.46093 a 0.1250125,0.1250125 0 0 0 0.216796,0.0801 l 2.296875,-2.52734 0.0039,-0.004 c 2.767456,-2.76812 5.227295,-5.94523 7.378906,-9.53125 a 0.1250125,0.1250125 0 0 0 0,-0.002 c 2.152329,-3.63846 3.240234,-6.35357 3.240234,-8.19336 0,-0.82539 -0.567397,-1.69533 -1.654297,-2.62695 -1.053899,-0.90335 -1.568359,-1.91073 -1.568359,-3.04883 0,-0.79142 0.243466,-1.38874 0.726563,-1.82422 0.537373,-0.43776 1.219593,-0.66016 2.064453,-0.66016 1.090919,0 2.021023,0.44065 2.820312,1.33985 a 0.1250125,0.1250125 0 0 0 0.0059,0.004 c 0.848528,0.84853 1.267578,1.85887 1.267578,3.05664 0,1.35292 -0.455977,3.15866 -1.373047,5.40039 a 0.1250125,0.1250125 0 0 0 0,0.002 c -0.86585,2.24102 -1.959679,4.30206 -3.283203,6.18554 -3.884514,5.46899 -7.436806,10.01652 -10.654297,13.64258 -1.58314,1.78742 -2.891718,3.12706 -3.919922,4.01563 -1.028204,0.88857 -1.790173,1.3125 -2.199219,1.3125 -0.07339,0 -0.132831,-0.0293 -0.203125,-0.12305 -0.07029,-0.0937 -0.138208,-0.25205 -0.193359,-0.47266 -0.110302,-0.44121 -0.169922,-1.12576 -0.169922,-2.04101 0,-2.30764 -0.179031,-5.78639 -0.537109,-10.44141 -0.358041,-4.65453 -0.740331,-8.23599 -1.150391,-10.74805 v -0.002 c -0.511807,-3.5308 -1.065252,-5.80476 -1.703125,-6.86914 l -0.002,-0.002 c -0.635395,-1.10984 -1.739971,-1.67188 -3.251953,-1.67188 -0.916231,0 -1.618106,0.0285 -2.175782,0.0742 v -0.76367 c 1.948606,-0.301 3.7115,-0.60117 5.267579,-0.90234 a 0.1250125,0.1250125 0 0 0 0.0039,-0.002 c 1.636567,-0.358 2.787206,-0.6139 3.453125,-0.76758 l -0.002,0.002 c 0.357362,-0.0766 0.637151,-0.13387 0.839843,-0.17188 0.202693,-0.038 0.341441,-0.0566 0.361329,-0.0566 z m 47.250004,0 c 3.24736,0 5.86901,0.98596 7.89062,2.95703 2.02138,1.97085 3.0293,4.53921 3.0293,7.73438 0,3.40066 -1.04029,6.95898 -3.12891,10.67773 -2.08749,3.66504 -4.91146,6.76991 -8.476561,9.31641 a 0.1250125,0.1250125 0 0 0 -0.002,0 c -3.511247,2.54438 -7.138561,3.8125 -10.894532,3.8125 -3.454019,0 -6.179389,-0.96202 -8.199218,-2.88086 -2.019671,-1.91869 -3.029297,-4.51229 -3.029297,-7.81055 0,-6.0013 2.361409,-11.4623 7.099609,-16.40429 4.738221,-4.94202 9.968242,-7.40235 15.710942,-7.40235 z m 28.07421,0 c 0.98524,0 1.69722,0.42687 2.19141,1.31641 a 0.1250125,0.1250125 0 0 0 0.004,0.006 c 0.54512,0.89202 1.13557,2.67799 1.74804,5.33203 l 0.76563,4.28906 a 0.1250125,0.1250125 0 0 0 0.22851,0.0449 c 2.65654,-4.13806 4.82821,-6.99593 6.5,-8.5664 a 0.1250125,0.1250125 0 0 0 0.002,-0.002 c 1.67257,-1.62188 3.3275,-2.41992 4.97461,-2.41992 0.895,0 1.59832,0.26824 2.13672,0.80664 a 0.1250125,0.1250125 0 0 0 0.008,0.008 c 0.58845,0.49037 0.87695,1.11149 0.87695,1.89843 0,0.90021 -0.2183,1.55401 -0.63672,1.98438 -0.41841,0.43037 -1.05036,0.65234 -1.92383,0.65234 -0.47663,0 -1.15452,-0.19694 -2.01171,-0.59961 l -0.006,-0.002 c -0.87255,-0.46135 -1.51608,-0.70117 -1.97071,-0.70117 -0.39185,0 -0.82558,0.21149 -1.3164,0.60742 -0.49082,0.39593 -1.04102,0.98185 -1.65821,1.75976 -1.23437,1.55583 -2.73209,3.87974 -4.49804,6.97657 a 0.1250125,0.1250125 0 0 0 -0.0156,0.0625 c 0,0.55303 0.25774,1.94107 0.76953,4.24414 0.51159,2.30211 1.0235,4.47677 1.53516,6.52343 l 0.68945,2.99024 a 0.1250125,0.1250125 0 0 0 0.002,0.006 c 0.30931,1.05684 0.66309,1.85664 1.07421,2.40039 0.41113,0.54375 0.89308,0.83594 1.42383,0.83594 0.50653,0 1.04213,-0.278 1.61719,-0.80078 0.57175,-0.51978 1.24079,-1.29132 2.00977,-2.31641 l 0.002,-0.002 c 0.78473,-1.02993 1.27995,-1.6673 1.54297,-1.98633 l 0.93164,0.49609 c -2.24696,3.43444 -4.0018,5.78192 -5.19336,6.92383 -1.20913,1.15874 -2.5286,1.73047 -3.97852,1.73047 -1.20298,0 -2.07917,-0.3466 -2.66601,-1.03125 -0.59034,-0.73922 -1.15344,-2.1067 -1.66211,-4.08985 v -0.002 l -2.22461,-9.20117 a 0.1250125,0.1250125 0 0 0 -0.2207,-0.0469 c -4.95936,6.59542 -8.21208,10.6652 -9.73047,12.18359 -1.46874,1.46874 -2.89453,2.1875 -4.28321,2.1875 -1.1544,0 -2.03995,-0.298 -2.67773,-0.88672 a 0.1250125,0.1250125 0 0 0 -0.004,-0.004 c -0.63626,-0.53837 -0.95312,-1.28754 -0.95312,-2.2832 0,-0.73927 0.24119,-1.33886 0.73047,-1.82812 a 0.1250125,0.1250125 0 0 0 0.006,-0.006 c 0.43866,-0.48741 0.98376,-0.72461 1.66992,-0.72461 0.63273,0 1.43528,0.24606 2.39648,0.75195 a 0.1250125,0.1250125 0 0 0 0.006,0.002 c 0.4881,0.23121 0.89315,0.40622 1.21875,0.52344 0.3256,0.11722 0.56729,0.17969 0.75196,0.17969 0.63155,0 1.28656,-0.32702 1.96484,-0.95313 0.67692,-0.62485 1.38333,-1.55334 2.12695,-2.7832 l 0.004,-0.006 6.28515,-8.9668 a 0.1250125,0.1250125 0 0 0 0.0195,-0.10156 l -2.30079,-9.43359 v -0.002 c -0.51165,-2.30199 -0.96127,-3.75394 -1.39648,-4.4082 -0.38177,-0.65226 -1.0764,-0.98047 -2.02344,-0.98047 -0.1916,0 -0.6222,0.072 -1.36523,0.21289 -0.71317,0.13526 -1.73048,0.34476 -2.98438,0.60938 l -0.18554,-0.99024 0.73242,-0.19921 a 0.1250125,0.1250125 0 0 0 0.006,-0.002 c 4.49616,-1.48169 7.49424,-2.21875 8.93554,-2.21875 z m 42.49414,0 c 1.72058,0 3.06643,0.37373 4.04883,1.10742 0.9824,0.73369 1.61167,1.83069 1.88867,3.31641 a 0.1250125,0.1250125 0 0 0 0.24415,0.008 l 0.9121,-3.72461 0.17383,-0.17578 4.59961,-0.52734 0.33789,0.16797 c -2.36084,8.78567 -4.14253,15.64982 -5.32617,20.53711 -0.59469,2.45548 -1.04208,4.41977 -1.33984,5.89257 -0.29777,1.47281 -0.44727,2.4477 -0.44727,2.95899 0,0.35322 0.0895,0.64028 0.28516,0.83594 0.19566,0.19565 0.48271,0.28515 0.83594,0.28515 0.23968,0 0.52258,-0.12364 0.88281,-0.34961 0.36023,-0.22596 0.7943,-0.56032 1.30859,-1.0039 1.00728,-0.86878 2.33696,-2.18303 3.95313,-3.89453 l 0.73242,0.60937 c -2.80434,3.39732 -4.91758,5.67136 -6.26172,6.7168 -1.36357,1.06055 -2.76595,1.58398 -4.21875,1.58398 -1.05403,0 -1.81059,-0.25004 -2.29102,-0.73047 -0.42422,-0.42422 -0.65234,-1.18109 -0.65234,-2.28906 0,-1.18909 0.55917,-4.14001 1.68359,-8.79102 a 0.1250125,0.1250125 0 0 0 -0.22265,-0.10156 c -3.372,4.75146 -6.1081,7.96658 -8.18555,9.63867 -2.07606,1.61988 -4.42181,2.42774 -7.05469,2.42774 -2.37772,0 -4.22794,-0.72906 -5.58398,-2.18555 -1.35547,-1.5068 -2.03711,-3.59296 -2.03711,-6.28125 0,-3.91427 1.09224,-7.9062 3.2832,-11.98242 h -0.002 c 2.24262,-4.07749 5.07031,-7.43773 8.48242,-10.08594 3.41094,-2.64729 6.7318,-3.96289 9.9707,-3.96289 z m -71.488276,1.36133 c -2.601008,0 -5.140312,1.37921 -7.609375,4.10547 -2.466142,2.72303 -4.418826,6.01122 -5.855469,9.85937 -1.436052,3.79528 -2.154297,7.33792 -2.154297,10.62891 0,2.16858 0.542625,3.91588 1.638672,5.2207 a 0.1250125,0.1250125 0 0 0 0.0039,0.004 c 1.147322,1.25162 2.646484,1.88086 4.464844,1.88086 2.854156,0 5.474511,-1.4589 7.841797,-4.33985 2.413391,-2.87553 4.211768,-6.16397 5.392578,-9.85937 1.23063,-3.6919 1.84766,-7.10644 1.84766,-10.24219 0,-2.11586 -0.51755,-3.85845 -1.5586,-5.21289 l -0.002,-0.002 c -0.99116,-1.35496 -2.34052,-2.04297 -4.009766,-2.04297 z m 71.566406,0.0762 c -2.657,0 -5.27352,1.56418 -7.84375,4.64844 a 0.1250125,0.1250125 0 0 0 -0.002,0 c -2.51387,3.07821 -4.46415,6.44072 -5.84961,10.08398 -1.33261,3.58778 -2.00196,6.54001 -2.00196,8.86524 0,1.75826 0.41601,3.19518 1.25391,4.29492 a 0.1250125,0.1250125 0 0 0 0.004,0.004 c 0.88969,1.04669 2.03097,1.57812 3.39257,1.57812 1.04774,0 2.19194,-0.31374 3.43165,-0.93359 a 0.1250125,0.1250125 0 0 0 0.002,0 c 1.29024,-0.67093 2.37568,-1.49869 3.25586,-2.48242 2.66936,-2.87499 4.85068,-6.31254 6.54297,-10.3125 1.74357,-3.99997 2.61718,-7.62113 2.61718,-10.86524 0,-1.45606 -0.4456,-2.64374 -1.33789,-3.53711 -0.84312,-0.89582 -2.00771,-1.34375 -3.46484,-1.34375 z m -71.566406,0.17383 c 1.602526,0 2.858676,0.64079 3.810546,1.94336 a 0.1250125,0.1250125 0 0 0 0.002,0.002 c 1.00338,1.30439 1.50782,2.98622 1.50782,5.0625 0,3.10296 -0.61005,6.49031 -1.83399,10.16211 a 0.1250125,0.1250125 0 0 0 0,0.002 c -1.17149,3.66728 -2.954728,6.92619 -5.347654,9.77734 -2.336783,2.84477 -4.88029,4.25 -7.650391,4.25 -1.759155,0 -3.175203,-0.59676 -4.277344,-1.79688 l -0.002,-0.002 c -1.050591,-1.25182 -1.578125,-2.93085 -1.578125,-5.05664 0,-3.25453 0.711063,-6.76805 2.138672,-10.54102 1.42702,-3.82237 3.361696,-7.08182 5.804687,-9.77929 2.440071,-2.69425 4.913108,-4.02344 7.425782,-4.02344 z m 71.566406,0.0762 c 1.40653,0 2.48996,0.4228 3.2832,1.26563 a 0.1250125,0.1250125 0 0 0 0.002,0.002 c 0.84506,0.84506 1.26757,1.95675 1.26757,3.36328 0,3.19914 -0.86393,6.78826 -2.59765,10.76563 a 0.1250125,0.1250125 0 0 0 0,0.002 c -1.68252,3.97686 -3.8477,7.39007 -6.4961,10.24219 a 0.1250125,0.1250125 0 0 0 -0.002,0.002 c -0.85847,0.95947 -1.91895,1.76715 -3.18555,2.42578 -1.21407,0.60676 -2.32117,0.90625 -3.31836,0.90625 -1.29653,0 -2.35253,-0.49102 -3.20117,-1.48828 -6.4e-4,-7.5e-4 -0.001,-0.001 -0.002,-0.002 -0.79575,-1.04733 -1.19727,-2.42063 -1.19727,-4.13672 0,-2.27709 0.65982,-5.20596 1.98633,-8.77735 1.3756,-3.61732 3.3119,-6.95408 5.8086,-10.01171 l 0.002,-0.002 c 2.54278,-3.05049 5.09212,-4.55664 7.65039,-4.55664 z"
       id="text3" />
  </g>
</svg>
